<svg xmlns="http://www.w3.org/2000/svg" width="181.973" height="62.844" viewBox="0 0 181.973 62.844">
  <g id="Grupo_104" data-name="Grupo 104" transform="translate(-140 -101.181)">
    <text id="Ecoleta" transform="translate(210.973 143.169)" fill="#707070" font-size="31" font-family="Ubuntu-Bold, Ubuntu" font-weight="700"><tspan x="0" y="0">Ecoleta</tspan></text>
    <g id="layer1" transform="translate(140 101.181)">
      <path id="path11522" d="M36.488-289.467l7.3-13.1.035,4.791,15.367-.035a10.044,10.044,0,0,0,6.9-3.506c-5.564,11.382-7.167,19.435-18.711,19.44H43.824l-.035,5.323ZM18.9-281.761c-8.216-2.5-12.049-12.62-15.807-19.752,1.722,1.566,4.945,3.807,6.817,3.807l10.771.023H31.559l-.035,15.876-.035.046Zm-16.4-23.9L7.751-316.37l-5.12-2.813H17.974l7.417,13.469-5.03-3.012L15.521-298.5l-5.57-.1C6.33-299.446,3.811-302.3,2.5-305.661Zm51.276,6.994L47-311.164l13.7-8.3,6.63,13.284c.2,3.179-4.932,7.6-8.118,7.569ZM13.67-327.908l7-10.491c6.789-2.529,10.722,2.93,13.2,6.371l-6.6,12.659Zm26.522,5.647a55.859,55.859,0,0,0-5.641-10.417,25.666,25.666,0,0,0-6.578-6.686l17.7-.035c3.179.286,4.724,2.139,6.411,4.675l2.546,4.478,3.934-2.511-7.406,13.191-15.968.035Z" transform="translate(-2.5 339.398)" fill="#2f743b"/>
    </g>
  </g>
</svg>
