<svg xmlns="http://www.w3.org/2000/svg" width="60" height="80" viewBox="0 0 104.586 173.901">
  <g id="Grupo_102" data-name="Grupo 102" transform="translate(-2981.22 -1009.7)">
    <g id="Grupo_95" data-name="Grupo 95" transform="translate(2981.22 1009.7)">
      <rect id="Retângulo_33" data-name="Retângulo 33" width="81.452" height="9.775" transform="translate(12.079 153.371)" fill="#131616"/>
      <path id="Caminho_200" data-name="Caminho 200" d="M3097.808,1020.424a14.087,14.087,0,0,0-13.68-10.724h-48.454a14.09,14.09,0,0,0-13.68,10.724l-7.143,29.057h90.1Z" transform="translate(-3006.827 -1009.7)" fill="#64687a"/>
      <path id="Caminho_201" data-name="Caminho 201" d="M2986.947,1176.44h93.133a5.729,5.729,0,0,1,5.726,5.726v11.495H2981.22v-11.495A5.729,5.729,0,0,1,2986.947,1176.44Z" transform="translate(-2981.22 -1136.659)" fill="#64687a"/>
      <path id="Caminho_202" data-name="Caminho 202" d="M3060.2,1248.62H3014.86l13.764,105.015a4.424,4.424,0,0,0,4.385,3.848h53.8a4.422,4.422,0,0,0,4.385-3.848l13.764-105.015H3060.2Z" transform="translate(-3006.834 -1191.618)" fill="#64687a"/>
      <path id="Caminho_203" data-name="Caminho 203" d="M3140.6,1050.418l-3.686-17.729a6.842,6.842,0,0,0-6.7-5.449h-33.389a6.842,6.842,0,0,0-6.7,5.449l-3.686,17.729a6.842,6.842,0,0,0,6.7,8.236H3133.9A6.842,6.842,0,0,0,3140.6,1050.418Z" transform="translate(-3061.222 -1023.055)" fill="#3c3e47"/>
      <g id="Grupo_92" data-name="Grupo 92" transform="translate(4.197 144.498)">
        <rect id="Retângulo_34" data-name="Retângulo 34" width="10.817" height="29.401" transform="translate(3.827 0.002)" fill="#313738"/>
        <path id="Caminho_204" data-name="Caminho 204" d="M3025.668,1615.353h-2.786a48.518,48.518,0,0,1,.623,8.909,18.51,18.51,0,0,1-3.016,9.832,12.351,12.351,0,0,1-3.264,3.187,11.833,11.833,0,0,1-2.374,1.093v6.377h10.818v-29.4Z" transform="translate(-3011.024 -1615.35)" fill="#131616"/>
        <path id="Caminho_205" data-name="Caminho 205" d="M3002.7,1632.21c-2.271,1.62-3.889,5.79-3.889,10.679s1.618,9.059,3.889,10.679Z" transform="translate(-2998.81 -1628.188)" fill="#64687a"/>
      </g>
      <g id="Grupo_93" data-name="Grupo 93" transform="translate(87.443 144.433)">
        <rect id="Retângulo_35" data-name="Retângulo 35" width="10.817" height="29.401" transform="translate(10.952 29.4) rotate(179.76)" fill="#313738"/>
        <path id="Caminho_206" data-name="Caminho 206" d="M3347.73,1615.322l2.787-.012a48.342,48.342,0,0,0-.585,8.911,18.5,18.5,0,0,0,3.056,9.818,12.392,12.392,0,0,0,3.278,3.176,11.839,11.839,0,0,0,2.379,1.083l.026,6.378-10.817.045-.124-29.4Z" transform="translate(-3347.73 -1615.254)" fill="#131616"/>
        <path id="Caminho_207" data-name="Caminho 207" d="M3392.88,1632.02c2.278,1.61,3.913,5.774,3.934,10.662s-1.579,9.066-3.844,10.7Z" transform="translate(-3382.108 -1627.978)" fill="#64687a"/>
      </g>
      <path id="Caminho_208" data-name="Caminho 208" d="M3060.2,1248.62H3014.86l.389,2.963c20.745,3.583,42.623.742,62.535,7.582,5.134,1.763,10.426,4.516,12.721,9.436a22.894,22.894,0,0,1,1.627,8.14,251.987,251.987,0,0,1-1.98,53.562c-.692,4.791-1.6,9.758-4.485,13.647-5.347,7.215-15.494,8.451-24.465,8.849a142.916,142.916,0,0,1-21.513-.272c-3.519-.377-7.115-1.016-10.135-2.863a13.261,13.261,0,0,1-1.6-1.15l.671,5.123a4.422,4.422,0,0,0,4.385,3.848h53.8a4.422,4.422,0,0,0,4.385-3.848l13.764-105.015h-44.759Z" transform="translate(-3006.834 -1191.618)" fill="#505360"/>
      <path id="Caminho_209" data-name="Caminho 209" d="M3037.133,1284.277c-.816,1.761-.451,3.815-.079,5.721q5.629,28.823,8.639,58.074c.231,2.25,1.327,5.225,3.555,4.843,2.064-.353,2.333-3.18,2.073-5.258-2.238-17.873-5.468-35.8-4.29-53.77a20.8,20.8,0,0,0-.272-7.084c-1.059-3.7-7.279-7.606-9.629-2.527Z" transform="translate(-3023.419 -1216.92)" opacity="0.12"/>
      <path id="Caminho_210" data-name="Caminho 210" d="M2993.275,1187.515a2.653,2.653,0,0,0,2.1,2.2,8.2,8.2,0,0,0,3.232-.065c10.9-1.613,21.964-1.434,32.977-1.517a2.752,2.752,0,0,0,1.329-.232.958.958,0,0,0,.5-1.136c-.186-.437-.738-.561-1.21-.613a57.947,57.947,0,0,0-6.658-.248q-9.044.011-18.09.024C3005.337,1185.93,2993.1,1184.477,2993.275,1187.515Z" transform="translate(-2990.397 -1143.62)" opacity="0.12"/>
      <path id="Caminho_211" data-name="Caminho 211" d="M3136.9,1032.689a6.842,6.842,0,0,0-6.7-5.449h-33.39a6.842,6.842,0,0,0-6.7,5.449l-3.686,17.729a6.843,6.843,0,0,0,6.7,8.236h8.887a11.256,11.256,0,0,1-1.537-6.933c.64-5.413,4.867-9.9,9.818-12.182s10.548-2.682,16-2.667c3.989.01,8.35.444,11.907,2.061l-1.3-6.246Z" transform="translate(-3061.214 -1023.055)" fill="#292a30"/>
      <path id="Caminho_212" data-name="Caminho 212" d="M3172.562,1369.71c-.155-.332-.957-.642-2.04-.907a24.762,24.762,0,0,0-1.405-8.606c-1.186-3.884-8.038-10-9.76-11.49a1.347,1.347,0,0,0-.079-.534c-.592-1.427-7.072-2.689-7.728-1.749-.21.3-.076,1.157.239,2.235-1.586.649-3.979,2.2-7.312,5.774-3.173,3.4-5.166,14.706-5.166,14.706s.067-.122.191-.339c-.68,1.536,1.345,7.308,2.445,7.4.365.031,1.04-.513,1.815-1.324,1.355,1.05,3.9,2.345,8.656,3.445,4.531,1.047,15.32-2.877,15.32-2.877h-.022c1.813-.661,5.287-4.8,4.848-5.733Zm-17.984,4.385a20.25,20.25,0,0,1-7.3-3.727,6.426,6.426,0,0,0,.959-1.839c.086-1.05-7.527-1.346-8.639.1a.038.038,0,0,1,0,.007c.954-1.665,4.192-7.112,7.468-10.221a20.239,20.239,0,0,1,6.878-4.461,6.388,6.388,0,0,0,1.115,1.751c.759.525,3.97-4.357,4.285-6.711,1.045,1.806,4.013,7.165,5.039,11.443a20.761,20.761,0,0,1,.518,7.573,6.61,6.61,0,0,0-2.119.086c-.907.43,2.266,6.556,4.137,7.351-2.174,0-8.176-.127-12.332-1.355Z" transform="translate(-3101.593 -1265.84)"/>
      <g id="Grupo_94" data-name="Grupo 94" transform="translate(36.25 123.155)">
        <path id="Caminho_213" data-name="Caminho 213" d="M3138.139,1530.937a17.613,17.613,0,0,1-.059,1.766,1.974,1.974,0,0,1-1.2,1.608,3.049,3.049,0,0,1-1.226.229,3.014,3.014,0,0,1-1.193-.217,1.975,1.975,0,0,1-.852-.651,1.955,1.955,0,0,1-.384-.945,17.47,17.47,0,0,1-.062-1.789v-1.417a17.537,17.537,0,0,1,.059-1.766,1.974,1.974,0,0,1,1.2-1.606,3.055,3.055,0,0,1,1.226-.229,3.018,3.018,0,0,1,1.193.217,1.991,1.991,0,0,1,1.236,1.6,17.538,17.538,0,0,1,.062,1.789v1.417Zm-2.152-2.72a2.556,2.556,0,0,0-.064-.74.254.254,0,0,0-.262-.16.292.292,0,0,0-.258.131,1.866,1.866,0,0,0-.088.771v3.865a3.733,3.733,0,0,0,.059.89.258.258,0,0,0,.275.17.267.267,0,0,0,.281-.193,4.091,4.091,0,0,0,.062-.926v-3.8Z" transform="translate(-3133.16 -1525.913)"/>
        <path id="Caminho_214" data-name="Caminho 214" d="M3157.39,1526.63h1.524a11.648,11.648,0,0,1,2.064.117,1.424,1.424,0,0,1,.881.6,2.727,2.727,0,0,1,.338,1.541,2.41,2.41,0,0,1-.241,1.3,1.254,1.254,0,0,1-.945.4,1.611,1.611,0,0,1,.859.425,1.27,1.27,0,0,1,.274.489,7.8,7.8,0,0,1,.052,1.224v2.183h-2v-2.751a1.9,1.9,0,0,0-.1-.823c-.069-.1-.253-.157-.549-.157v3.732h-2.152v-8.276Zm2.152,1.417v1.839a.938.938,0,0,0,.508-.1c.1-.067.146-.281.146-.646v-.456a.689.689,0,0,0-.141-.515.8.8,0,0,0-.513-.122Z" transform="translate(-3151.609 -1526.454)"/>
        <path id="Caminho_215" data-name="Caminho 215" d="M3185.763,1529.114h-2.152v-.751a3.726,3.726,0,0,0-.062-.89.322.322,0,0,0-.563-.026,2.5,2.5,0,0,0-.072.787v3.973a2.382,2.382,0,0,0,.072.735.28.28,0,0,0,.286.177.317.317,0,0,0,.32-.2,2.318,2.318,0,0,0,.083-.778v-.98h-.434V1529.9h2.52v4.442h-1.353l-.2-.594a1.485,1.485,0,0,1-.556.575,1.559,1.559,0,0,1-.79.191,2.075,2.075,0,0,1-1.016-.262,1.95,1.95,0,0,1-.718-.651,2.043,2.043,0,0,1-.308-.816,9.828,9.828,0,0,1-.062-1.281v-2.46a8.172,8.172,0,0,1,.129-1.723,1.78,1.78,0,0,1,.732-.985,2.569,2.569,0,0,1,1.568-.446,2.883,2.883,0,0,1,1.57.389,1.847,1.847,0,0,1,.814.923,4.874,4.874,0,0,1,.188,1.551v.358Z" transform="translate(-3169.404 -1525.89)"/>
        <path id="Caminho_216" data-name="Caminho 216" d="M3207.389,1526.63l1.231,8.276h-2.2l-.115-1.489h-.771l-.129,1.489h-2.226l1.1-8.276Zm-1.141,5.323q-.164-1.406-.327-3.476-.329,2.376-.413,3.476h.742Z" transform="translate(-3186.474 -1526.454)"/>
        <path id="Caminho_217" data-name="Caminho 217" d="M3232.325,1526.63v8.276h-1.887l-1.119-3.762v3.762h-1.8v-8.276h1.8l1.207,3.727v-3.727Z" transform="translate(-3205.008 -1526.454)"/>
        <path id="Caminho_218" data-name="Caminho 218" d="M3253.432,1526.63v8.276h-2.152v-8.276Z" transform="translate(-3223.098 -1526.454)"/>
        <path id="Caminho_219" data-name="Caminho 219" d="M3268.757,1529.679H3266.6v-1.439a2.581,2.581,0,0,0-.069-.783.3.3,0,0,0-.3-.155.316.316,0,0,0-.336.189,2.873,2.873,0,0,0-.072.818v3.844a2.669,2.669,0,0,0,.072.787.307.307,0,0,0,.322.184.3.3,0,0,0,.315-.184,2.985,2.985,0,0,0,.074-.866v-1.04h2.152v.322a6.341,6.341,0,0,1-.181,1.823,1.871,1.871,0,0,1-.8.943,2.75,2.75,0,0,1-1.532.406,3.23,3.23,0,0,1-1.56-.344,1.675,1.675,0,0,1-.814-.947,6.2,6.2,0,0,1-.2-1.823v-2.419a10.877,10.877,0,0,1,.062-1.343,1.879,1.879,0,0,1,.365-.861,2.024,2.024,0,0,1,.844-.651,3.069,3.069,0,0,1,1.24-.239,3.027,3.027,0,0,1,1.57.368,1.775,1.775,0,0,1,.814.916,5.544,5.544,0,0,1,.193,1.708v.787Z" transform="translate(-3232.532 -1525.898)"/>
      </g>
    </g>
  </g>
</svg>
