<svg xmlns="http://www.w3.org/2000/svg" width="279.302" height="95.898" viewBox="0 0 279.302 95.898">
  <g id="Grupo_103" data-name="Grupo 103" transform="translate(-140 -101.181)">
    <text id="Ecoleta" transform="translate(248.302 166)" fill="#707070" font-size="48" font-family="Ubuntu-Bold, Ubuntu" font-weight="700"><tspan x="0" y="0">Ecoleta</tspan></text>
    <g id="layer1" transform="translate(140 101.181)">
      <path id="path11522" d="M54.365-263.206l11.142-19.988.053,7.31,23.449-.053a15.327,15.327,0,0,0,10.524-5.35c-8.49,17.368-10.936,29.657-28.552,29.665H65.56l-.053,8.122Zm-26.839,11.76C14.989-255.258,9.139-270.7,3.405-281.587c2.628,2.389,7.546,5.81,10.4,5.81q8.218.019,16.436.035h16.6l-.053,24.226-.053.071ZM2.5-287.916l8.013-16.342L2.7-308.55H26.113L37.431-288l-7.676-4.6L22.37-277l-8.5-.149C8.344-278.433,4.5-282.781,2.5-287.916Zm78.245,10.673L70.4-296.314,91.3-308.974,101.422-288.7c.306,4.851-7.526,11.6-12.388,11.549Zm-61.2-44.621,10.681-16.008c10.36-3.858,16.361,4.471,20.149,9.722L40.31-308.833Zm40.471,8.617a85.238,85.238,0,0,0-8.608-15.9c-3.214-4.51-7.1-8.445-10.038-10.2l27.016-.053c4.852.436,7.209,3.264,9.782,7.134l3.885,6.833,6-3.832-11.3,20.129-24.367.053Z" transform="translate(-2.5 339.398)" fill="#2f743b"/>
    </g>
  </g>
</svg>
