<svg xmlns="http://www.w3.org/2000/svg" width="60" height="80" viewBox="0 0 104.532 173.813">
  <g id="Grupo_97" data-name="Grupo 97" transform="translate(-604.28 -1009.7)">
    <rect id="Retângulo_24" data-name="Retângulo 24" width="81.411" height="9.77" transform="translate(616.353 1162.993)" fill="#131616"/>
    <path id="Caminho_144" data-name="Caminho 144" d="M720.836,1020.419a14.079,14.079,0,0,0-13.673-10.719H658.733a14.082,14.082,0,0,0-13.673,10.719l-7.14,29.042h90.055Z" transform="translate(-25.618 0)" fill="#f98715"/>
    <path id="Caminho_145" data-name="Caminho 145" d="M610,1176.44h93.086a5.726,5.726,0,0,1,5.723,5.723v11.489H604.28v-11.489A5.726,5.726,0,0,1,610,1176.44Z" transform="translate(0 -126.979)" fill="#f98715"/>
    <path id="Caminho_146" data-name="Caminho 146" d="M683.24,1248.62H637.92l13.757,104.962a4.422,4.422,0,0,0,4.383,3.846h53.776a4.42,4.42,0,0,0,4.383-3.846l13.757-104.962Z" transform="translate(-25.618 -181.947)" fill="#f98715"/>
    <path id="Caminho_147" data-name="Caminho 147" d="M763.628,1050.406l-3.684-17.72a6.838,6.838,0,0,0-6.7-5.447H719.875a6.839,6.839,0,0,0-6.7,5.447l-3.684,17.72a6.839,6.839,0,0,0,6.7,8.232h40.741a6.839,6.839,0,0,0,6.7-8.232Z" transform="translate(-80.014 -13.357)" fill="#b25400"/>
    <g id="Grupo_80" data-name="Grupo 80" transform="translate(608.475 1154.125)">
      <rect id="Retângulo_25" data-name="Retângulo 25" width="10.812" height="29.386" transform="translate(3.827 0.002)" fill="#313738"/>
      <path id="Caminho_148" data-name="Caminho 148" d="M648.722,1615.352h-2.785a48.529,48.529,0,0,1,.622,8.9,18.5,18.5,0,0,1-3.014,9.827,12.339,12.339,0,0,1-3.262,3.186,11.763,11.763,0,0,1-2.373,1.092v6.374h10.812V1615.35Z" transform="translate(-634.085 -1615.35)" fill="#131616"/>
      <path id="Caminho_149" data-name="Caminho 149" d="M625.757,1632.21c-2.27,1.619-3.887,5.787-3.887,10.673s1.617,9.054,3.887,10.674Z" transform="translate(-621.87 -1628.189)" fill="#f98715"/>
    </g>
    <g id="Grupo_81" data-name="Grupo 81" transform="translate(691.679 1154.076)">
      <rect id="Retângulo_26" data-name="Retângulo 26" width="10.812" height="29.386" transform="translate(10.948 29.385) rotate(179.76)" fill="#313738"/>
      <path id="Caminho_150" data-name="Caminho 150" d="M970.79,1615.322l2.785-.012a48.3,48.3,0,0,0-.584,8.906,18.488,18.488,0,0,0,3.055,9.813,12.384,12.384,0,0,0,3.276,3.174,11.819,11.819,0,0,0,2.377,1.083l.026,6.374-10.812.045-.124-29.386Z" transform="translate(-970.79 -1615.271)" fill="#131616"/>
      <path id="Caminho_151" data-name="Caminho 151" d="M1015.95,1632.02c2.277,1.61,3.911,5.771,3.932,10.657s-1.578,9.062-3.842,10.69Z" transform="translate(-1005.181 -1627.996)" fill="#f98715"/>
    </g>
    <path id="Caminho_152" data-name="Caminho 152" d="M683.24,1248.62H637.92l.389,2.962c20.734,3.582,42.6.742,62.5,7.578,5.132,1.762,10.421,4.514,12.715,9.431a22.882,22.882,0,0,1,1.626,8.136,251.891,251.891,0,0,1-1.979,53.535c-.692,4.788-1.6,9.753-4.483,13.64-5.344,7.211-15.486,8.446-24.452,8.844a142.869,142.869,0,0,1-21.5-.272c-3.517-.377-7.111-1.016-10.13-2.862a13.269,13.269,0,0,1-1.6-1.149l.67,5.12a4.422,4.422,0,0,0,4.383,3.846h53.776a4.42,4.42,0,0,0,4.383-3.846l13.757-104.962H683.242Z" transform="translate(-25.618 -181.947)" fill="#f76c0d"/>
    <path id="Caminho_153" data-name="Caminho 153" d="M660.192,1284.275c-.815,1.76-.451,3.813-.079,5.718q5.626,28.809,8.635,58.044c.231,2.249,1.326,5.222,3.553,4.841,2.063-.353,2.332-3.179,2.072-5.256-2.237-17.863-5.466-35.777-4.288-53.742a20.78,20.78,0,0,0-.272-7.08c-1.059-3.7-7.276-7.6-9.624-2.525Z" transform="translate(-42.205 -207.253)" opacity="0.12"/>
    <path id="Caminho_154" data-name="Caminho 154" d="M616.334,1187.514a2.652,2.652,0,0,0,2.1,2.2,8.2,8.2,0,0,0,3.231-.064c10.891-1.612,21.953-1.433,32.96-1.517a2.75,2.75,0,0,0,1.328-.231.958.958,0,0,0,.5-1.135c-.186-.436-.737-.56-1.209-.613a57.9,57.9,0,0,0-6.656-.248q-9.039.011-18.08.024C628.391,1185.93,616.158,1184.478,616.334,1187.514Z" transform="translate(-9.178 -133.941)" opacity="0.12"/>
    <path id="Caminho_155" data-name="Caminho 155" d="M759.934,1032.687a6.838,6.838,0,0,0-6.7-5.447H719.865a6.839,6.839,0,0,0-6.7,5.447l-3.684,17.72a6.839,6.839,0,0,0,6.7,8.232h8.883a11.251,11.251,0,0,1-1.536-6.93c.639-5.411,4.865-9.9,9.813-12.176s10.542-2.68,15.991-2.666c3.987.009,8.346.443,11.9,2.06l-1.3-6.243Z" transform="translate(-80.007 -13.357)" fill="#7f3900"/>
    <path id="Caminho_156" data-name="Caminho 156" d="M795.6,1369.7c-.155-.331-.956-.641-2.039-.906a24.756,24.756,0,0,0-1.4-8.6c-1.185-3.882-8.034-10-9.755-11.484a1.344,1.344,0,0,0-.079-.534c-.591-1.426-7.068-2.687-7.724-1.748-.21.3-.076,1.157.238,2.234-1.586.649-3.978,2.2-7.309,5.771-3.172,3.4-5.163,14.7-5.163,14.7s.067-.122.191-.339c-.68,1.536,1.345,7.3,2.444,7.4.365.031,1.04-.513,1.815-1.323,1.354,1.049,3.894,2.344,8.651,3.443,4.528,1.047,15.312-2.876,15.312-2.876h-.021c1.812-.66,5.284-4.8,4.846-5.73Zm-17.975,4.383a20.238,20.238,0,0,1-7.3-3.725,6.42,6.42,0,0,0,.959-1.838c.086-1.049-7.523-1.345-8.635.1l0,.007c.952-1.664,4.19-7.109,7.464-10.216a20.229,20.229,0,0,1,6.875-4.459,6.381,6.381,0,0,0,1.114,1.75c.758.525,3.968-4.354,4.283-6.708,1.044,1.805,4.011,7.161,5.036,11.437a20.8,20.8,0,0,1,.517,7.569,6.6,6.6,0,0,0-2.118.086c-.906.429,2.265,6.553,4.135,7.347C787.783,1375.436,781.783,1375.309,777.629,1374.081Z" transform="translate(-120.391 -256.181)"/>
    <g id="Grupo_82" data-name="Grupo 82" transform="translate(641.79 1130.338)">
      <path id="Caminho_157" data-name="Caminho 157" d="M761.58,1516.33h2.168a5.045,5.045,0,0,1,1.352.138,1.526,1.526,0,0,1,.711.4,1.387,1.387,0,0,1,.322.632,5.593,5.593,0,0,1,.083,1.147v.72a2.98,2.98,0,0,1-.165,1.154,1.135,1.135,0,0,1-.6.558,2.854,2.854,0,0,1-1.142.193h-.577v3.331H761.58v-8.272Zm2.151,1.417v2.105c.062,0,.114,0,.157,0a.491.491,0,0,0,.41-.145,1.074,1.074,0,0,0,.114-.606v-.68a.791.791,0,0,0-.133-.551.826.826,0,0,0-.551-.129Z" transform="translate(-761.58 -1516.156)"/>
      <path id="Caminho_158" data-name="Caminho 158" d="M785.761,1516.33v6.617h1.309v1.655h-3.46v-8.272Z" transform="translate(-778.357 -1516.156)"/>
      <path id="Caminho_159" data-name="Caminho 159" d="M803.556,1516.33l1.23,8.272h-2.2l-.115-1.488h-.77l-.129,1.488H799.35l1.1-8.272Zm-1.14,5.32q-.165-1.406-.327-3.475-.329,2.375-.413,3.475h.742Z" transform="translate(-790.343 -1516.156)"/>
      <path id="Caminho_160" data-name="Caminho 160" d="M827.668,1518.293h-2v-.613a1.216,1.216,0,0,0-.076-.546.279.279,0,0,0-.255-.117.326.326,0,0,0-.293.157.919.919,0,0,0-.1.482,1.378,1.378,0,0,0,.112.625,1.627,1.627,0,0,0,.608.506,6.092,6.092,0,0,1,1.81,1.4,3.213,3.213,0,0,1,.372,1.762,3.1,3.1,0,0,1-.207,1.3,1.639,1.639,0,0,1-.8.7,3.184,3.184,0,0,1-1.381.284,3.093,3.093,0,0,1-1.474-.327,1.59,1.59,0,0,1-.8-.832,4.257,4.257,0,0,1-.188-1.436v-.541h2v1.006a1.352,1.352,0,0,0,.083.6.327.327,0,0,0,.3.134.351.351,0,0,0,.32-.169.967.967,0,0,0,.1-.5,1.55,1.55,0,0,0-.2-.956,6.319,6.319,0,0,0-1.006-.751,9.864,9.864,0,0,1-1.063-.773,1.8,1.8,0,0,1-.432-.665,2.919,2.919,0,0,1-.172-1.083,3,3,0,0,1,.243-1.39,1.634,1.634,0,0,1,.785-.687,3.136,3.136,0,0,1,1.309-.248,3.4,3.4,0,0,1,1.428.272,1.5,1.5,0,0,1,.782.682,3.591,3.591,0,0,1,.191,1.4v.327Z" transform="translate(-808.3 -1515.615)"/>
      <path id="Caminho_161" data-name="Caminho 161" d="M849.532,1516.33v1.655h-1.278v6.617H846.1v-6.617H844.83v-1.655Z" transform="translate(-824.978 -1516.156)"/>
      <path id="Caminho_162" data-name="Caminho 162" d="M868.761,1516.33v8.272H866.61v-8.272Z" transform="translate(-841.564 -1516.156)"/>
      <path id="Caminho_163" data-name="Caminho 163" d="M884.084,1519.377h-2.151v-1.438a2.594,2.594,0,0,0-.069-.782.3.3,0,0,0-.3-.155.316.316,0,0,0-.336.188,2.878,2.878,0,0,0-.071.818v3.842a2.673,2.673,0,0,0,.071.787.307.307,0,0,0,.322.184.3.3,0,0,0,.315-.184,2.984,2.984,0,0,0,.074-.866v-1.04h2.151v.322a6.341,6.341,0,0,1-.181,1.822,1.872,1.872,0,0,1-.8.942,2.749,2.749,0,0,1-1.531.405,3.231,3.231,0,0,1-1.559-.343,1.671,1.671,0,0,1-.813-.949,6.186,6.186,0,0,1-.2-1.822v-2.418a10.771,10.771,0,0,1,.062-1.34,1.873,1.873,0,0,1,.365-.861,2.02,2.02,0,0,1,.844-.651,3.066,3.066,0,0,1,1.24-.239,3.027,3.027,0,0,1,1.569.367,1.776,1.776,0,0,1,.813.916,5.533,5.533,0,0,1,.193,1.707v.787Z" transform="translate(-851 -1515.6)"/>
    </g>
  </g>
</svg>
