<svg xmlns="http://www.w3.org/2000/svg" width="60" height="80" viewBox="0 0 104.627 173.97">
  <g id="Grupo_98" data-name="Grupo 98" transform="translate(-1198.51 -1009.7)">
    <rect id="Retângulo_27" data-name="Retângulo 27" width="81.484" height="9.779" transform="translate(1210.597 1163.131)" fill="#131616"/>
    <path id="Caminho_164" data-name="Caminho 164" d="M1315.141,1020.429a14.092,14.092,0,0,0-13.686-10.729h-48.473a14.1,14.1,0,0,0-13.686,10.729l-7.146,29.068h90.136l-7.146-29.068Z" transform="translate(-25.611 0)" fill="#f7cb14"/>
    <path id="Caminho_165" data-name="Caminho 165" d="M1204.238,1176.44h93.17a5.731,5.731,0,0,1,5.728,5.728v11.5H1198.51v-11.5A5.731,5.731,0,0,1,1204.238,1176.44Z" transform="translate(0 -126.943)" fill="#f7cb14"/>
    <path id="Caminho_166" data-name="Caminho 166" d="M1277.511,1248.62H1232.15l13.769,105.056a4.426,4.426,0,0,0,4.387,3.85h53.824a4.424,4.424,0,0,0,4.387-3.85l13.769-105.056H1277.51Z" transform="translate(-25.611 -181.895)" fill="#f7cb14"/>
    <path id="Caminho_167" data-name="Caminho 167" d="M1357.908,1050.428l-3.688-17.736a6.844,6.844,0,0,0-6.7-5.451h-33.4a6.845,6.845,0,0,0-6.7,5.451l-3.687,17.736a6.845,6.845,0,0,0,6.7,8.239h40.778A6.845,6.845,0,0,0,1357.908,1050.428Z" transform="translate(-79.992 -13.354)"/>
    <g id="Grupo_84" data-name="Grupo 84" transform="translate(1202.711 1154.255)">
      <rect id="Retângulo_28" data-name="Retângulo 28" width="10.822" height="29.412" transform="translate(3.828 0.002)" fill="#313738"/>
      <path id="Caminho_168" data-name="Caminho 168" d="M1242.972,1615.352h-2.788a48.569,48.569,0,0,1,.623,8.912,18.514,18.514,0,0,1-3.017,9.836,12.346,12.346,0,0,1-3.265,3.189,11.838,11.838,0,0,1-2.375,1.093v6.38h10.822V1615.35Z" transform="translate(-1228.322 -1615.35)" fill="#131616"/>
      <path id="Caminho_169" data-name="Caminho 169" d="M1220,1632.21c-2.272,1.62-3.89,5.793-3.89,10.683s1.618,9.063,3.89,10.683Z" transform="translate(-1216.11 -1628.186)" fill="#f7cb14"/>
    </g>
    <g id="Grupo_85" data-name="Grupo 85" transform="translate(1285.99 1154.202)">
      <rect id="Retângulo_29" data-name="Retângulo 29" width="10.822" height="29.412" transform="translate(10.955 29.412) rotate(179.76)" fill="#313738"/>
      <path id="Caminho_170" data-name="Caminho 170" d="M1565.03,1615.322l2.788-.012a48.345,48.345,0,0,0-.585,8.915,18.507,18.507,0,0,0,3.058,9.822,12.393,12.393,0,0,0,3.279,3.177,11.841,11.841,0,0,0,2.38,1.084l.026,6.38-10.822.045-.124-29.412Z" transform="translate(-1565.03 -1615.266)" fill="#131616"/>
      <path id="Caminho_171" data-name="Caminho 171" d="M1610.18,1632.02c2.279,1.611,3.914,5.776,3.936,10.667s-1.58,9.07-3.845,10.7Z" transform="translate(-1599.404 -1627.988)" fill="#f7cb14"/>
    </g>
    <path id="Caminho_172" data-name="Caminho 172" d="M1277.511,1248.62H1232.15l.389,2.964c20.753,3.585,42.64.742,62.56,7.585,5.136,1.764,10.43,4.518,12.726,9.44a22.905,22.905,0,0,1,1.628,8.144,252.118,252.118,0,0,1-1.981,53.583c-.692,4.793-1.6,9.762-4.487,13.652-5.349,7.218-15.5,8.454-24.474,8.853a142.982,142.982,0,0,1-21.522-.272c-3.521-.377-7.117-1.017-10.139-2.864a13.283,13.283,0,0,1-1.6-1.15l.671,5.124a4.426,4.426,0,0,0,4.387,3.85h53.824a4.424,4.424,0,0,0,4.387-3.85l13.769-105.056h-44.776Z" transform="translate(-25.611 -181.895)" fill="#f4b80f"/>
    <path id="Caminho_173" data-name="Caminho 173" d="M1254.433,1284.278c-.816,1.761-.451,3.816-.079,5.724q5.632,28.835,8.642,58.1c.232,2.251,1.327,5.227,3.556,4.845,2.065-.353,2.334-3.182,2.074-5.26-2.239-17.879-5.471-35.809-4.292-53.791a20.8,20.8,0,0,0-.272-7.086c-1.06-3.7-7.282-7.609-9.633-2.528Z" transform="translate(-42.201 -207.194)" opacity="0.44"/>
    <path id="Caminho_174" data-name="Caminho 174" d="M1210.574,1187.515a2.654,2.654,0,0,0,2.1,2.2,8.208,8.208,0,0,0,3.234-.064c10.9-1.614,21.973-1.434,32.99-1.518a2.754,2.754,0,0,0,1.329-.232.96.96,0,0,0,.5-1.136c-.186-.437-.737-.561-1.21-.613a57.942,57.942,0,0,0-6.661-.248q-9.047.011-18.1.024C1222.641,1185.931,1210.4,1184.477,1210.574,1187.515Z" transform="translate(-9.183 -133.903)" opacity="0.44"/>
    <path id="Caminho_175" data-name="Caminho 175" d="M1354.22,1032.691a6.844,6.844,0,0,0-6.7-5.451h-33.4a6.845,6.845,0,0,0-6.7,5.451l-3.687,17.736a6.845,6.845,0,0,0,6.7,8.239h8.891a11.261,11.261,0,0,1-1.537-6.936c.64-5.416,4.869-9.908,9.822-12.187s10.552-2.683,16.006-2.668c3.991.01,8.354.444,11.912,2.062l-1.3-6.249Z" transform="translate(-79.992 -13.354)" fill="#966c0c"/>
    <path id="Caminho_176" data-name="Caminho 176" d="M1389.874,1369.72c-.155-.332-.957-.642-2.041-.907a24.778,24.778,0,0,0-1.406-8.609c-1.186-3.886-8.041-10.005-9.764-11.495a1.344,1.344,0,0,0-.079-.535c-.592-1.427-7.074-2.69-7.731-1.75-.21.3-.076,1.158.239,2.236-1.587.649-3.981,2.2-7.315,5.776-3.174,3.4-5.167,14.712-5.167,14.712s.067-.122.191-.339c-.68,1.537,1.346,7.311,2.446,7.4.365.031,1.041-.513,1.816-1.325,1.356,1.05,3.9,2.346,8.659,3.447,4.532,1.048,15.325-2.879,15.325-2.879h-.021c1.814-.661,5.289-4.8,4.85-5.735Zm-17.992,4.387a20.255,20.255,0,0,1-7.306-3.728,6.421,6.421,0,0,0,.959-1.84c.086-1.05-7.53-1.346-8.642.1a.038.038,0,0,1,0,.007c.952-1.666,4.193-7.115,7.471-10.225a20.246,20.246,0,0,1,6.881-4.463,6.384,6.384,0,0,0,1.115,1.752c.759.525,3.972-4.358,4.287-6.714,1.045,1.807,4.015,7.167,5.041,11.447a20.821,20.821,0,0,1,.518,7.576,6.614,6.614,0,0,0-2.12.086c-.907.43,2.267,6.559,4.139,7.354-2.174,0-8.18-.126-12.337-1.356Z" transform="translate(-120.365 -256.109)"/>
    <g id="Grupo_86" data-name="Grupo 86" transform="translate(1240.503 1130.614)">
      <path id="Caminho_177" data-name="Caminho 177" d="M1381.095,1516.3v8.28h-1.883v-5.59l-.752,5.59h-1.334l-.79-5.463v5.463h-1.886v-8.28h2.785c.083.5.167,1.084.255,1.761l.305,2.108.494-3.867h2.8Z" transform="translate(-1374.45 -1516.3)"/>
      <path id="Caminho_178" data-name="Caminho 178" d="M1405.91,1516.3h3.59v1.656h-1.437v1.57h1.346v1.575h-1.346v1.821h1.58v1.656h-3.733Z" transform="translate(-1398.401 -1516.3)"/>
      <path id="Caminho_179" data-name="Caminho 179" d="M1426.727,1516.3v1.656h-1.279v6.623h-2.153v-6.623h-1.275V1516.3Z" transform="translate(-1410.666 -1516.3)"/>
      <path id="Caminho_180" data-name="Caminho 180" d="M1444.21,1516.3l1.231,8.28h-2.2l-.115-1.489h-.771l-.129,1.489H1440l1.1-8.28Zm-1.141,5.325q-.164-1.407-.327-3.478-.329,2.377-.413,3.478h.742Z" transform="translate(-1424.355 -1516.3)"/>
      <path id="Caminho_181" data-name="Caminho 181" d="M1466.483,1516.3v6.623h1.31v1.656h-3.463v-8.28Z" transform="translate(-1442.878 -1516.3)"/>
    </g>
  </g>
</svg>
