<svg xmlns="http://www.w3.org/2000/svg" width="60" height="80" viewBox="0 0 105.064 174.698">
  <g id="Grupo_100" data-name="Grupo 100" transform="translate(-2386.98 -1009.7)">
    <rect id="Retângulo_30" data-name="Retângulo 30" width="81.825" height="9.82" transform="translate(2399.117 1163.773)" fill="#131616"/>
    <path id="Caminho_182" data-name="Caminho 182" d="M2503.958,1020.474a14.151,14.151,0,0,0-13.743-10.773h-48.676a14.154,14.154,0,0,0-13.743,10.773l-7.176,29.19h90.514l-7.176-29.19Z" transform="translate(-25.577 0)" fill="#516bbf"/>
    <path id="Caminho_183" data-name="Caminho 183" d="M2392.732,1176.44h93.56a5.755,5.755,0,0,1,5.752,5.752v11.548H2386.98v-11.548A5.755,5.755,0,0,1,2392.732,1176.44Z" transform="translate(0 -126.776)" fill="#516bbf"/>
    <path id="Caminho_184" data-name="Caminho 184" d="M2466.17,1248.62H2420.62l13.827,105.5a4.444,4.444,0,0,0,4.405,3.866H2492.9a4.442,4.442,0,0,0,4.405-3.866l13.827-105.5H2466.17Z" transform="translate(-25.577 -181.657)" fill="#516bbf"/>
    <path id="Caminho_185" data-name="Caminho 185" d="M2546.6,1050.525l-3.7-17.81a6.873,6.873,0,0,0-6.73-5.474h-33.543a6.874,6.874,0,0,0-6.73,5.474l-3.7,17.81a6.874,6.874,0,0,0,6.73,8.274h40.949a6.874,6.874,0,0,0,6.73-8.274Z" transform="translate(-79.887 -13.336)" fill="#2f436b"/>
    <g id="Grupo_88" data-name="Grupo 88" transform="translate(2391.198 1154.86)">
      <rect id="Retângulo_31" data-name="Retângulo 31" width="10.867" height="29.535" transform="translate(3.844 0.002)" fill="#313738"/>
      <path id="Caminho_186" data-name="Caminho 186" d="M2431.487,1615.352h-2.8a48.748,48.748,0,0,1,.625,8.949,18.588,18.588,0,0,1-3.029,9.877,12.4,12.4,0,0,1-3.279,3.2,11.893,11.893,0,0,1-2.385,1.1v6.406h10.867V1615.35Z" transform="translate(-2416.776 -1615.35)" fill="#131616"/>
      <path id="Caminho_187" data-name="Caminho 187" d="M2408.487,1632.21c-2.282,1.627-3.907,5.817-3.907,10.728s1.625,9.1,3.907,10.728Z" transform="translate(-2404.58 -1628.169)" fill="#516bbf"/>
    </g>
    <g id="Grupo_89" data-name="Grupo 89" transform="translate(2474.826 1154.799)">
      <rect id="Retângulo_32" data-name="Retângulo 32" width="10.867" height="29.535" transform="translate(11.001 29.535) rotate(179.76)" fill="#313738"/>
      <path id="Caminho_188" data-name="Caminho 188" d="M2753.5,1615.322l2.8-.012a48.526,48.526,0,0,0-.587,8.952,18.582,18.582,0,0,0,3.07,9.863,12.445,12.445,0,0,0,3.293,3.19,11.894,11.894,0,0,0,2.389,1.088l.027,6.407-10.867.045-.125-29.535Z" transform="translate(-2753.5 -1615.259)" fill="#131616"/>
      <path id="Caminho_189" data-name="Caminho 189" d="M2798.65,1632.02c2.289,1.618,3.931,5.8,3.952,10.711s-1.586,9.108-3.861,10.745Z" transform="translate(-2787.829 -1627.963)" fill="#516bbf"/>
    </g>
    <path id="Caminho_190" data-name="Caminho 190" d="M2466.17,1248.62H2420.62l.391,2.977c20.84,3.6,42.818.745,62.822,7.617,5.158,1.771,10.474,4.537,12.779,9.479a23,23,0,0,1,1.635,8.178,253.194,253.194,0,0,1-1.989,53.807c-.7,4.813-1.611,9.8-4.506,13.709-5.371,7.248-15.564,8.49-24.576,8.89a143.6,143.6,0,0,1-21.612-.273c-3.535-.379-7.147-1.021-10.181-2.876a13.341,13.341,0,0,1-1.606-1.155l.673,5.146a4.444,4.444,0,0,0,4.405,3.866H2492.9a4.442,4.442,0,0,0,4.405-3.866l13.827-105.5h-44.963Z" transform="translate(-25.577 -181.657)" fill="#435c9b"/>
    <path id="Caminho_191" data-name="Caminho 191" d="M2442.895,1284.288c-.82,1.769-.453,3.832-.079,5.747q5.655,28.955,8.679,58.34c.232,2.26,1.333,5.249,3.571,4.865,2.073-.355,2.344-3.195,2.083-5.283-2.248-17.954-5.493-35.958-4.309-54.016a20.892,20.892,0,0,0-.273-7.116c-1.064-3.717-7.312-7.641-9.673-2.538Z" transform="translate(-42.138 -206.922)" opacity="0.12"/>
    <path id="Caminho_192" data-name="Caminho 192" d="M2399.034,1187.523a2.665,2.665,0,0,0,2.112,2.21,8.241,8.241,0,0,0,3.248-.065c10.946-1.62,22.065-1.44,33.128-1.524a2.766,2.766,0,0,0,1.335-.232.963.963,0,0,0,.506-1.141c-.187-.439-.74-.563-1.215-.616a58.178,58.178,0,0,0-6.689-.249q-9.085.011-18.172.024C2411.152,1185.932,2398.857,1184.472,2399.034,1187.523Z" transform="translate(-9.164 -133.728)" opacity="0.12"/>
    <path id="Caminho_193" data-name="Caminho 193" d="M2542.9,1032.714a6.873,6.873,0,0,0-6.73-5.474h-33.543a6.874,6.874,0,0,0-6.73,5.474l-3.7,17.81a6.874,6.874,0,0,0,6.73,8.274h8.928a11.308,11.308,0,0,1-1.543-6.965c.642-5.438,4.889-9.949,9.863-12.238s10.6-2.694,16.073-2.679c4.007.01,8.389.446,11.962,2.071l-1.3-6.275Z" transform="translate(-79.887 -13.336)" fill="#1f2d44"/>
    <path id="Caminho_194" data-name="Caminho 194" d="M2578.484,1369.818c-.156-.333-.961-.645-2.049-.911a24.882,24.882,0,0,0-1.412-8.645c-1.191-3.9-8.075-10.047-9.805-11.543a1.351,1.351,0,0,0-.079-.537c-.594-1.433-7.1-2.7-7.763-1.757-.211.3-.077,1.162.24,2.246-1.594.652-4,2.212-7.346,5.8-3.187,3.415-5.189,14.774-5.189,14.774s.067-.122.192-.34c-.683,1.543,1.352,7.341,2.457,7.435.366.031,1.045-.515,1.824-1.33,1.361,1.055,3.914,2.356,8.7,3.461,4.551,1.052,15.39-2.891,15.39-2.891h-.022c1.822-.664,5.311-4.82,4.87-5.759Zm-18.067,4.405a20.34,20.34,0,0,1-7.336-3.744,6.448,6.448,0,0,0,.963-1.848c.086-1.055-7.562-1.352-8.678.105a.038.038,0,0,1-.005.007c.959-1.673,4.211-7.145,7.5-10.268a20.329,20.329,0,0,1,6.91-4.482,6.425,6.425,0,0,0,1.119,1.759c.762.527,3.988-4.377,4.3-6.742,1.05,1.814,4.031,7.2,5.062,11.495a20.91,20.91,0,0,1,.52,7.607,6.643,6.643,0,0,0-2.128.086c-.911.431,2.277,6.586,4.156,7.384-2.183,0-8.214-.127-12.389-1.361Z" transform="translate(-120.207 -255.773)"/>
    <g id="Grupo_90" data-name="Grupo 90" transform="translate(2429.053 1130.161)">
      <path id="Caminho_195" data-name="Caminho 195" d="M2562.52,1512.3h2.178a5.065,5.065,0,0,1,1.359.139,1.532,1.532,0,0,1,.714.4,1.393,1.393,0,0,1,.324.635,5.617,5.617,0,0,1,.084,1.153v.724a2.992,2.992,0,0,1-.166,1.16,1.14,1.14,0,0,1-.6.561,2.868,2.868,0,0,1-1.148.194h-.58v3.348h-2.162Zm2.162,1.424v2.116c.063,0,.115,0,.158,0a.494.494,0,0,0,.412-.146,1.079,1.079,0,0,0,.115-.609v-.683a.8.8,0,0,0-.134-.554.844.844,0,0,0-.553-.13Z" transform="translate(-2562.52 -1512.3)"/>
      <path id="Caminho_196" data-name="Caminho 196" d="M2585.638,1512.3l1.237,8.314h-2.21l-.115-1.5h-.774l-.129,1.5h-2.236l1.1-8.314Zm-1.146,5.347q-.165-1.413-.328-3.492-.331,2.387-.415,3.492h.745Z" transform="translate(-2576.883 -1512.3)"/>
      <path id="Caminho_197" data-name="Caminho 197" d="M2605.74,1512.3h2.179a5.063,5.063,0,0,1,1.359.139,1.534,1.534,0,0,1,.714.4,1.4,1.4,0,0,1,.323.635,5.635,5.635,0,0,1,.084,1.153v.724a3,3,0,0,1-.165,1.16,1.142,1.142,0,0,1-.6.561,2.871,2.871,0,0,1-1.148.194h-.58v3.348h-2.162V1512.3Zm2.162,1.424v2.116c.062,0,.115,0,.158,0a.5.5,0,0,0,.412-.146,1.082,1.082,0,0,0,.115-.609v-.683a.8.8,0,0,0-.134-.554.844.844,0,0,0-.554-.13Z" transform="translate(-2595.381 -1512.3)"/>
      <path id="Caminho_198" data-name="Caminho 198" d="M2627.77,1512.3h3.6v1.663h-1.443v1.577h1.352v1.582h-1.352v1.829h1.587v1.663h-3.749Z" transform="translate(-2612.131 -1512.3)"/>
      <path id="Caminho_199" data-name="Caminho 199" d="M2646.01,1512.3h1.531a11.71,11.71,0,0,1,2.073.117,1.429,1.429,0,0,1,.885.6,2.737,2.737,0,0,1,.34,1.548,2.419,2.419,0,0,1-.242,1.3,1.259,1.259,0,0,1-.949.4,1.617,1.617,0,0,1,.863.427,1.273,1.273,0,0,1,.275.491,7.812,7.812,0,0,1,.053,1.23v2.193h-2.009v-2.763a1.912,1.912,0,0,0-.105-.827c-.069-.105-.254-.158-.551-.158v3.748h-2.162V1512.3Zm2.162,1.424v1.848a.944.944,0,0,0,.51-.1c.1-.067.146-.283.146-.65v-.458a.692.692,0,0,0-.142-.518.806.806,0,0,0-.515-.122Z" transform="translate(-2625.999 -1512.3)"/>
    </g>
  </g>
</svg>
