<svg xmlns="http://www.w3.org/2000/svg" width="60" height="80" viewBox="0 0 104.532 173.813">
  <g id="Grupo_96" data-name="Grupo 96" transform="translate(-10.04 -1009.7)">
    <rect id="Retângulo_21" data-name="Retângulo 21" width="81.411" height="9.77" transform="translate(22.116 1162.993)" fill="#131616"/>
    <path id="Caminho_124" data-name="Caminho 124" d="M126.6,1020.419a14.08,14.08,0,0,0-13.673-10.719H64.493a14.082,14.082,0,0,0-13.673,10.719l-7.14,29.042h90.055Z" transform="translate(-25.618)" fill="#ea381b"/>
    <path id="Caminho_125" data-name="Caminho 125" d="M15.763,1176.44h93.086a5.726,5.726,0,0,1,5.723,5.723v11.489H10.04v-11.489A5.726,5.726,0,0,1,15.763,1176.44Z" transform="translate(0 -126.979)" fill="#ea381b"/>
    <path id="Caminho_126" data-name="Caminho 126" d="M89,1248.62H43.68l13.757,104.962a4.422,4.422,0,0,0,4.383,3.846H115.6a4.42,4.42,0,0,0,4.383-3.846l13.757-104.962Z" transform="translate(-25.618 -181.947)" fill="#ea381b"/>
    <path id="Caminho_127" data-name="Caminho 127" d="M169.388,1050.407l-3.684-17.72a6.838,6.838,0,0,0-6.7-5.446H125.635a6.839,6.839,0,0,0-6.7,5.446l-3.684,17.72a6.839,6.839,0,0,0,6.7,8.232h40.741a6.839,6.839,0,0,0,6.7-8.232Z" transform="translate(-80.015 -13.357)" fill="#a0190b"/>
    <g id="Grupo_76" data-name="Grupo 76" transform="translate(14.237 1154.125)">
      <rect id="Retângulo_22" data-name="Retângulo 22" width="10.812" height="29.386" transform="translate(3.825 0.002)" fill="#313738"/>
      <path id="Caminho_128" data-name="Caminho 128" d="M54.492,1615.352H51.707a48.524,48.524,0,0,1,.622,8.9,18.5,18.5,0,0,1-3.014,9.827,12.34,12.34,0,0,1-3.262,3.186,11.823,11.823,0,0,1-2.373,1.092v6.374H54.492V1615.35Z" transform="translate(-39.855 -1615.35)" fill="#131616"/>
      <path id="Caminho_129" data-name="Caminho 129" d="M31.527,1632.21c-2.27,1.619-3.887,5.787-3.887,10.674s1.617,9.054,3.887,10.674Z" transform="translate(-27.64 -1628.189)" fill="#ea381b"/>
    </g>
    <g id="Grupo_77" data-name="Grupo 77" transform="translate(97.441 1154.078)">
      <rect id="Retângulo_23" data-name="Retângulo 23" width="10.812" height="29.386" transform="translate(10.944 29.385) rotate(179.76)" fill="#313738"/>
      <path id="Caminho_130" data-name="Caminho 130" d="M376.56,1615.322l2.785-.012a48.307,48.307,0,0,0-.584,8.906,18.488,18.488,0,0,0,3.055,9.813,12.382,12.382,0,0,0,3.276,3.174,11.827,11.827,0,0,0,2.377,1.083l.026,6.374-10.812.045-.124-29.386Z" transform="translate(-376.56 -1615.273)" fill="#131616"/>
      <path id="Caminho_131" data-name="Caminho 131" d="M421.71,1632.02c2.277,1.61,3.911,5.771,3.932,10.657s-1.579,9.062-3.842,10.69Z" transform="translate(-410.943 -1627.999)" fill="#ea381b"/>
    </g>
    <path id="Caminho_132" data-name="Caminho 132" d="M89,1248.62H43.68l.389,2.962c20.734,3.582,42.6.742,62.5,7.578,5.132,1.762,10.421,4.514,12.715,9.431a22.886,22.886,0,0,1,1.626,8.136,251.893,251.893,0,0,1-1.979,53.535c-.692,4.788-1.6,9.753-4.483,13.64-5.344,7.211-15.486,8.446-24.452,8.844a142.836,142.836,0,0,1-21.5-.272c-3.517-.377-7.111-1.016-10.13-2.862a13.284,13.284,0,0,1-1.6-1.149l.67,5.12a4.422,4.422,0,0,0,4.383,3.846H115.6a4.42,4.42,0,0,0,4.383-3.846l13.757-104.961H89Z" transform="translate(-25.618 -181.947)" fill="#d62c1a"/>
    <path id="Caminho_133" data-name="Caminho 133" d="M65.962,1284.275c-.816,1.76-.451,3.813-.079,5.718q5.627,28.809,8.635,58.044c.231,2.249,1.326,5.222,3.553,4.841,2.063-.353,2.332-3.179,2.072-5.256-2.237-17.863-5.466-35.776-4.288-53.742a20.779,20.779,0,0,0-.272-7.08c-1.059-3.7-7.275-7.6-9.624-2.525Z" transform="translate(-42.213 -207.253)" opacity="0.12"/>
    <path id="Caminho_134" data-name="Caminho 134" d="M22.1,1187.514a2.652,2.652,0,0,0,2.1,2.2,8.2,8.2,0,0,0,3.231-.064c10.891-1.612,21.953-1.433,32.96-1.517a2.751,2.751,0,0,0,1.328-.231.958.958,0,0,0,.5-1.135c-.186-.436-.737-.56-1.209-.613a57.921,57.921,0,0,0-6.655-.248q-9.039.011-18.08.024C34.161,1185.93,21.927,1184.478,22.1,1187.514Z" transform="translate(-9.186 -133.941)" opacity="0.12"/>
    <path id="Caminho_135" data-name="Caminho 135" d="M165.7,1032.687a6.838,6.838,0,0,0-6.7-5.447H125.635a6.839,6.839,0,0,0-6.7,5.447l-3.684,17.72a6.839,6.839,0,0,0,6.7,8.232h8.883a11.252,11.252,0,0,1-1.536-6.93c.639-5.411,4.865-9.9,9.813-12.176s10.542-2.68,15.991-2.666c3.987.01,8.346.444,11.9,2.06l-1.3-6.243Z" transform="translate(-80.015 -13.357)" fill="#770f0a"/>
    <path id="Caminho_136" data-name="Caminho 136" d="M201.374,1369.7c-.155-.331-.956-.641-2.039-.906a24.756,24.756,0,0,0-1.4-8.6c-1.185-3.882-8.034-10-9.755-11.484a1.342,1.342,0,0,0-.079-.534c-.591-1.426-7.068-2.687-7.724-1.748-.21.3-.076,1.156.238,2.234-1.586.649-3.978,2.2-7.309,5.771-3.172,3.4-5.163,14.7-5.163,14.7s.067-.122.191-.339c-.68,1.536,1.345,7.3,2.444,7.4.365.031,1.04-.513,1.815-1.324,1.354,1.049,3.894,2.344,8.651,3.443,4.528,1.047,15.312-2.876,15.312-2.876h-.021c1.812-.661,5.284-4.8,4.846-5.73Zm-17.975,4.383a20.238,20.238,0,0,1-7.3-3.725,6.415,6.415,0,0,0,.959-1.839c.086-1.049-7.523-1.345-8.635.1l0,.007c.951-1.664,4.19-7.109,7.464-10.216a20.227,20.227,0,0,1,6.875-4.459,6.38,6.38,0,0,0,1.114,1.75c.758.525,3.968-4.354,4.283-6.708,1.044,1.805,4.011,7.161,5.036,11.437a20.8,20.8,0,0,1,.517,7.569,6.61,6.61,0,0,0-2.118.086c-.906.429,2.265,6.553,4.135,7.347C193.553,1375.436,187.553,1375.309,183.4,1374.081Z" transform="translate(-120.399 -256.181)"/>
    <g id="Grupo_78" data-name="Grupo 78" transform="translate(45.523 1127.746)">
      <path id="Caminho_137" data-name="Caminho 137" d="M158.84,1505.45h3.586v1.655h-1.436v1.569h1.345v1.574h-1.345v1.819h1.579v1.655h-3.73v-8.272Z" transform="translate(-158.84 -1505.278)"/>
      <path id="Caminho_138" data-name="Caminho 138" d="M178.764,1522.93v1.426H176.05v-1.426Z" transform="translate(-171.946 -1518.59)"/>
      <path id="Caminho_139" data-name="Caminho 139" d="M196.73,1505.45l-.959,8.272h-2.685q-.368-1.906-.651-4.338-.129,1.044-.6,4.338h-2.671l-.963-8.272h2.089l.227,2.888.219,2.79q.118-2.168.594-5.678h2.234q.043.361.234,2.728l.238,3.148q.182-3,.6-5.876h2.089Z" transform="translate(-181.199 -1505.278)"/>
      <path id="Caminho_140" data-name="Caminho 140" d="M227.477,1505.45l1.23,8.272h-2.2l-.114-1.488h-.77l-.129,1.488H223.27l1.1-8.272Zm-1.14,5.32q-.165-1.406-.327-3.474-.329,2.375-.413,3.474h.742Z" transform="translate(-207.906 -1505.278)"/>
      <path id="Caminho_141" data-name="Caminho 141" d="M251.588,1507.406h-2v-.613a1.217,1.217,0,0,0-.076-.546.279.279,0,0,0-.255-.117.326.326,0,0,0-.293.157.918.918,0,0,0-.1.482,1.378,1.378,0,0,0,.112.625,1.625,1.625,0,0,0,.608.505,6.1,6.1,0,0,1,1.81,1.4,3.213,3.213,0,0,1,.372,1.762,3.081,3.081,0,0,1-.207,1.3,1.638,1.638,0,0,1-.8.7,3.18,3.18,0,0,1-1.381.284,3.092,3.092,0,0,1-1.474-.327,1.59,1.59,0,0,1-.8-.832,4.259,4.259,0,0,1-.188-1.436v-.541h2v1.006a1.352,1.352,0,0,0,.083.6.327.327,0,0,0,.3.134.351.351,0,0,0,.32-.169.967.967,0,0,0,.1-.5,1.55,1.55,0,0,0-.2-.956,6.319,6.319,0,0,0-1.006-.751,9.874,9.874,0,0,1-1.064-.773,1.8,1.8,0,0,1-.432-.665,2.919,2.919,0,0,1-.172-1.083,3,3,0,0,1,.243-1.39,1.634,1.634,0,0,1,.785-.687,3.135,3.135,0,0,1,1.309-.248,3.4,3.4,0,0,1,1.428.272,1.5,1.5,0,0,1,.782.682,3.593,3.593,0,0,1,.191,1.4v.327Z" transform="translate(-225.863 -1504.73)"/>
      <path id="Caminho_142" data-name="Caminho 142" d="M273.453,1505.45v1.655h-1.278v6.617h-2.151V1507.1H268.75v-1.655Z" transform="translate(-242.541 -1505.278)"/>
      <path id="Caminho_143" data-name="Caminho 143" d="M290.53,1505.45h3.586v1.655h-1.436v1.569h1.345v1.574h-1.345v1.819h1.579v1.655h-3.73Z" transform="translate(-259.127 -1505.278)"/>
    </g>
  </g>
</svg>
