<svg id="pessoas-coleta" xmlns="http://www.w3.org/2000/svg" width="465.333" height="454.781" viewBox="0 0 465.333 454.781">
  <g id="a" transform="translate(0)">
    <g id="Grupo_1" data-name="Grupo 1">
      <path id="Caminho_1" data-name="Caminho 1" d="M247.037.233S493.113-15.636,462.732,215.158,268.3,359.4,216.656,340.651s-168.6,50.483-203.542-36.062S-.557-6.977,247.037.233Z" transform="translate(0.003 -0.001)" fill="#c0d5ff" opacity="0.5"/>
      <ellipse id="Elipse_1" data-name="Elipse 1" cx="217.73" cy="14.684" rx="217.73" ry="14.684" transform="translate(16.166 425.413)" fill="#051f38" opacity="0.2"/>
    </g>
  </g>
  <g id="b" transform="translate(49.16 5.346)">
    <g id="Grupo_34" data-name="Grupo 34" transform="translate(181.835 38.14)">
      <g id="Grupo_25" data-name="Grupo 25">
        <g id="Grupo_7" data-name="Grupo 7" transform="translate(120.532 149.415)">
          <g id="Grupo_4" data-name="Grupo 4" transform="translate(2.842 128.356)">
            <g id="Grupo_2" data-name="Grupo 2" transform="translate(0 17.541)">
              <path id="Caminho_2" data-name="Caminho 2" d="M415.757,351.29s-28.356,81.016-31.394,81.016-63.8,19.241-10.127-5.064c0,0,6.076-88.1,15.19-92.155S415.757,351.29,415.757,351.29Z" transform="translate(-349.894 -334.551)" fill="#965450"/>
              <path id="Caminho_3" data-name="Caminho 3" d="M394.2,409.642c9.226-23.971,21.267-58.352,21.267-58.352s-17.216-20.254-26.33-16.2c-5.9,2.623-10.532,40.518-13.064,66.889C382.166,404.4,388.182,407.019,394.2,409.642Z" transform="translate(-349.59 -334.551)" fill="#76413b"/>
              <path id="Caminho_4" data-name="Caminho 4" d="M365.5,430.414s-2.36,5.4,19.92-.334l-1.013,3.038S321.615,447.974,365.5,430.414Z" transform="translate(-349.922 -333.338)" fill="#051f38"/>
            </g>
            <g id="Grupo_3" data-name="Grupo 3" transform="translate(19.304)">
              <path id="Caminho_5" data-name="Caminho 5" d="M398.409,317.23s43.86,73.785,41.905,76.114-26.249,61.248-10.39,4.506c0,0-63.608-61.268-60.853-70.858S398.409,317.23,398.409,317.23Z" transform="translate(-368.984 -317.23)" fill="#965450"/>
              <path id="Caminho_6" data-name="Caminho 6" d="M426.962,406.454s2.623,5.276,12.537-15.474l1.681,2.724S412.218,451.357,426.962,406.454Z" transform="translate(-368.301 -316.294)" fill="#051f38"/>
              <path id="Caminho_7" data-name="Caminho 7" d="M423.919,361.141c-11.757-20.77-25.51-43.911-25.51-43.911s-26.583.172-29.338,9.762c-1.782,6.208,24.274,34.108,42.857,52.984A77.624,77.624,0,0,0,423.919,361.141Z" transform="translate(-368.984 -317.23)" fill="#76413b"/>
            </g>
          </g>
          <g id="Grupo_6" data-name="Grupo 6">
            <path id="Caminho_8" data-name="Caminho 8" d="M426.455,207.8s-26.836-29.875-42.533-11.14-40,80.509-36.457,105.827c2.086,14.887,16.406,30.806,27.869,41.409l-9.641,54.291s39.5,10.633,36.963,10.633c-1.519,0,38.989-108.865,43.04-143.3S426.455,207.8,426.455,207.8Z" transform="translate(-347.116 -190.483)" fill="#603578"/>
            <g id="Grupo_5" data-name="Grupo 5" transform="translate(0.002)">
              <path id="Caminho_9" data-name="Caminho 9" d="M405.563,214.572c7.534-.091,15.7-1.144,22.9-4.1-1.438-1.742-2.37-2.674-2.37-2.674s-26.836-29.875-42.533-11.14a83.283,83.283,0,0,0-7.747,11.454c8.952,4.861,20.021,6.572,29.753,6.451Z" transform="translate(-346.754 -190.483)" fill="#603578" opacity="0.2"/>
              <path id="Caminho_10" data-name="Caminho 10" d="M365.723,228.55c-11.16,25.388-20.548,57.055-18.259,73.451,2.066,14.785,16.213,30.594,27.637,41.2,4.051-27.566,11.464-65.815,15.879-87.882-10.957-6.339-20.082-15.342-25.257-26.766Z" transform="translate(-347.118 -190)" fill="#603578" opacity="0.2"/>
            </g>
          </g>
        </g>
        <g id="Grupo_18" data-name="Grupo 18" transform="translate(0 48.618)">
          <g id="Grupo_14" data-name="Grupo 14" transform="translate(0 42.797)">
            <g id="Grupo_10" data-name="Grupo 10" transform="translate(57.189)">
              <g id="Grupo_8" data-name="Grupo 8" transform="translate(0 15.565)">
                <path id="Caminho_11" data-name="Caminho 11" d="M349.778,148.58l-16.2,31.394s-28.356-15.7-32.406-15.7-23.292.506-14.178,4.557c0,0-4.051,2.532.506,3.544,0,0-4.051,3.544,1.013,4.051l11.646-.506s23.292,21.267,34.938,24.3,30.381-36.457,30.381-36.457Z" transform="translate(-284.567 -148.58)" fill="#965450"/>
                <path id="Caminho_12" data-name="Caminho 12" d="M351.725,171.123c2.582.922,5.165,1.863,7.778,2.734,3.19-5.722,5.266-10.086,5.266-10.086l-15.7-15.19-8.881,17.2a61.454,61.454,0,0,0,11.525,5.347Z" transform="translate(-283.861 -148.58)" fill="#76413b"/>
              </g>
              <g id="Grupo_9" data-name="Grupo 9" transform="translate(56.603)">
                <path id="Caminho_13" data-name="Caminho 13" d="M369.322,133.585s-15.19-2.532-20.76,5.57-8.1,21.267-8.1,21.267l21.773,10.633Z" transform="translate(-340.46 -133.21)" fill="#00c220"/>
                <path id="Caminho_14" data-name="Caminho 14" d="M361.008,162.165c-5.529-4.314-11.919-9.864-16.092-16.355a80.514,80.514,0,0,0-4.456,14.451l21.773,10.633,1.3-6.866c-.861-.608-1.711-1.215-2.532-1.853Z" transform="translate(-340.46 -133.05)" fill="#161826" opacity="0.1"/>
              </g>
            </g>
            <g id="Grupo_13" data-name="Grupo 13" transform="translate(0 7.55)">
              <g id="Grupo_11" data-name="Grupo 11" transform="translate(0 0)">
                <rect id="Ret창ngulo_3" data-name="Ret창ngulo 3" width="19.008" height="20.436" rx="3.12" transform="translate(12.454 10.189) rotate(-19.85)" fill="#c6a35d"/>
                <path id="Caminho_15" data-name="Caminho 15" d="M273.874,150.609l-37.429,13.509a12.635,12.635,0,0,0-7.6,16.173l11.585,32.082a12.635,12.635,0,0,0,16.173,7.6l37.429-13.509a12.635,12.635,0,0,0,7.6-16.173L290.047,158.2A12.635,12.635,0,0,0,273.874,150.609Zm24.133,42.665a5.057,5.057,0,0,1-3.038,6.471l-16.082-44.559a5.057,5.057,0,0,1,6.471,3.038l12.659,35.06Z" transform="translate(-228.095 -140.549)" fill="#0a3b77"/>
                <rect id="Ret창ngulo_4" data-name="Ret창ngulo 4" width="23.606" height="9.661" rx="2.72" transform="translate(9.14 8.016) rotate(-19.85)" fill="#051f38"/>
              </g>
              <g id="Grupo_12" data-name="Grupo 12" transform="translate(57.607 19.4)">
                <path id="Caminho_16" data-name="Caminho 16" d="M284.99,166.117s6.431-2.218,7.443-.962-5.347,3.058-5.1,3.18,6.907-1.377,7.5,0-7.089,3.9-7.089,3.9,7.271-1.985,7.747-.476-7.565,3.727-7.565,3.727l-.435-3.322-.466-3.889-2.046-2.157Z" transform="translate(-284.98 -159.759)" fill="#965450"/>
                <path id="Caminho_17" data-name="Caminho 17" d="M293.943,164.5s-4.922-3.3-4.982-4.507,13.155,4.385,13.155,4.385l-8.172.122Z" transform="translate(-284.93 -159.822)" fill="#965450"/>
              </g>
            </g>
          </g>
          <g id="Grupo_16" data-name="Grupo 16" transform="translate(124.243)">
            <path id="Caminho_18" data-name="Caminho 18" d="M390.832,131.61c-.982,1.843,3.96-40.66,3.96-40.66l-22.958,15.484s2,27.12-.506,27.242c-1.033.051-5,1.468-9.327,3.129,1.023,5.064,3,6.157,4.709,11,12.9-.071,26.8-.365,34.715-12.2-4.486-1.337-9.276-6.481-10.6-3.99Z" transform="translate(-350.638 -90.95)" fill="#76413b"/>
            <g id="Grupo_15" data-name="Grupo 15" transform="translate(0 34.057)">
              <path id="Caminho_19" data-name="Caminho 19" d="M369.191,133.694l-1.013-3.544,25.317-5.57,1.013,6.076s30.381,10.127,34.432,32.913,2.025,37.47-2.532,45.065c0,0-35.444,5.064-50.635-2.532s-30.887-64.306-22.786-69.37A22.645,22.645,0,0,1,369.191,133.694Z" transform="translate(-350.78 -124.58)" fill="#00c220"/>
              <path id="Caminho_20" data-name="Caminho 20" d="M402.222,196.09c-12.132-.719-27.029-2.157-37.136-9.671a44.482,44.482,0,0,1-5.3-4.658c4.537,11.2,10.238,20.791,15.879,23.606,15.19,7.6,50.635,2.532,50.635,2.532,2.015-3.362,3.534-8.132,4.253-14.37-9.064,2.775-18.6,3.139-28.335,2.562Z" transform="translate(-350.666 -123.854)" fill="#00c220" opacity="0.1"/>
            </g>
          </g>
          <g id="Grupo_17" data-name="Grupo 17" transform="translate(145.42 86.717)">
            <path id="Caminho_21" data-name="Caminho 21" d="M400.825,178.605l25.824-2.025s-6.583,45.571-14.178,61.268-42.533,77.471-28.862,43.04c0,0-17.722,26.836-2.532-.506,0,0-16.71,21.773-2.025-1.519,0,0-17.216,19.748,1.013-8.1,0,0-13.671,6.583,1.519-4.557l14.684-38.483,4.557-49.116Z" transform="translate(-371.692 -176.58)" fill="#965450"/>
            <path id="Caminho_22" data-name="Caminho 22" d="M425.72,180.307c.365-2.349.567-3.727.567-3.727l-25.824,2.025-.243,2.613c8.5-.03,17-.385,25.5-.911Z" transform="translate(-371.33 -176.58)" fill="#76413b"/>
          </g>
        </g>
        <g id="Grupo_24" data-name="Grupo 24" transform="translate(124.264)">
          <g id="Grupo_22" data-name="Grupo 22">
            <g id="Grupo_20" data-name="Grupo 20" transform="translate(0 19.2)">
              <path id="Caminho_23" data-name="Caminho 23" d="M373.856,64.168s12.9-7.524,31.728,4.841c12.5,8.213,11.828,34.411-15.059,51.617C358.463,141.144,373.856,64.168,373.856,64.168Z" transform="translate(-350.556 -61.901)" fill="#051f38"/>
              <g id="Grupo_19" data-name="Grupo 19" transform="translate(0 8.971)">
                <path id="Caminho_24" data-name="Caminho 24" d="M391.926,78.021S377.434,66.74,365.12,72.3c-15.636,7.059-14,23.555-14.309,37.682-.415,18.694,14.37,22.249,18.826,22.482,6.633.344,33.409-1.235,22.29-54.443Z" transform="translate(-350.802 -70.759)" fill="#965450"/>
                <path id="Caminho_25" data-name="Caminho 25" d="M392.8,95.258s.608-2.876,5.479-.577c6.177,2.917,2.836,17.712-4.1,17.337s-1.377-16.77-1.377-16.77Z" transform="translate(-350.295 -70.467)" fill="#965450"/>
              </g>
            </g>
            <g id="Grupo_21" data-name="Grupo 21" transform="translate(8.08)">
              <path id="Caminho_26" data-name="Caminho 26" d="M392.821,95.34s.84,10.117-1.539,10.269-4.962-18.34,1.732-18.279-.2,8.01-.2,8.01Z" transform="translate(-358.4 -42.378)" fill="#051f38"/>
              <path id="Caminho_27" data-name="Caminho 27" d="M393.2,95.64s-5-22.512-34.422-18.786A29.157,29.157,0,0,1,372.36,64.54c12.7-5.347,31.606,16.213,26.31,30.523,0,0-2.36.253-5.479.577Z" transform="translate(-358.78 -42.678)" fill="#00c220"/>
              <path id="Caminho_28" data-name="Caminho 28" d="M405.132,75.164s-1.61-26.887,4.841-26.887-.537,22.583-.537,22.583,5.377-32.265,20.973-27.424S419.118,70.86,419.118,70.86s12.365-11.292,16.669-7.524-17.742,11.292-17.742,11.292,16.669-4.841,18.816,3.231-32.265,6.988-31.728-2.684Z" transform="translate(-358.194 -42.941)" fill="#051f38"/>
            </g>
          </g>
          <g id="Grupo_23" data-name="Grupo 23" transform="translate(0.849 42.947)">
            <path id="Caminho_29" data-name="Caminho 29" d="M351.64,90.2a2.963,2.963,0,0,1,.2-.618,5.537,5.537,0,0,1,.9-1.438,6.182,6.182,0,0,1,1.965-1.489,6.708,6.708,0,0,1,.678-.253,2.961,2.961,0,0,1,.729-.182c.253-.03.506-.091.77-.1l.79.03a6.464,6.464,0,0,1,1.529.354,8.625,8.625,0,0,1,1.286.709,12.1,12.1,0,0,1,.972.891,10.8,10.8,0,0,1,.658.942c.091.152.182.294.253.435s.111.294.162.425a6.681,6.681,0,0,1,.223.7,3.8,3.8,0,0,1,.132.628s-.243-.081-.6-.243c-.182-.081-.395-.182-.618-.3a5.453,5.453,0,0,0-.77-.365c-.273-.122-.557-.263-.84-.405a6.806,6.806,0,0,1-.891-.354c-.3-.091-.608-.162-.9-.263-.3,0-.587-.152-.891-.132l-.446-.051c-.152,0-.3.01-.456.01-.3-.02-.618.061-.932.071-.3.071-.628.091-.932.182-.314.061-.608.142-.9.223-.577.152-1.094.3-1.458.425l-.608.182Z" transform="translate(-351.64 -85.34)" fill="#051f38"/>
            <path id="Caminho_30" data-name="Caminho 30" d="M359.29,117.64s16.608.486,17.682.3S367.736,125.853,359.29,117.64Z" transform="translate(-351.543 -84.94)" fill="#fff"/>
            <path id="Caminho_31" data-name="Caminho 31" d="M360.5,99.357s-.03.223-.081.618a11.944,11.944,0,0,1-.395,1.6,8.583,8.583,0,0,1-.425,1.033c-.091.182-.182.365-.294.547l-.385.547a3.621,3.621,0,0,1-1.114.932,1.846,1.846,0,0,1-.375.182l-.314.1a3.106,3.106,0,0,1-.77.132,2.477,2.477,0,0,1-1.549-.486,2.856,2.856,0,0,1-.911-1.175,4.722,4.722,0,0,1-.395-1.235,6.557,6.557,0,0,1-.122-1.124,7.3,7.3,0,0,1,.132-1.661,5.842,5.842,0,0,1,.152-.608,11.614,11.614,0,0,0,.273,2.2,7.27,7.27,0,0,0,.719,2.025,2.4,2.4,0,0,0,.709.81,1.443,1.443,0,0,0,.952.273,2.091,2.091,0,0,0,.547-.081l.324-.091s.142-.081.213-.111a2.952,2.952,0,0,0,.891-.658,7.31,7.31,0,0,0,.7-.891c.213-.294.375-.618.547-.891.3-.587.557-1.084.719-1.438l.273-.557Z" transform="translate(-351.618 -85.18)"/>
            <path id="Caminho_32" data-name="Caminho 32" d="M377.009,100.637s-.03.223-.081.618a11.948,11.948,0,0,1-.395,1.6,8.585,8.585,0,0,1-.425,1.033c-.091.182-.182.365-.294.547l-.385.547a3.622,3.622,0,0,1-1.114.932,1.849,1.849,0,0,1-.375.182l-.314.1a3.107,3.107,0,0,1-.77.132,2.477,2.477,0,0,1-1.549-.486,2.856,2.856,0,0,1-.911-1.175,4.723,4.723,0,0,1-.4-1.235,6.563,6.563,0,0,1-.121-1.124,7.3,7.3,0,0,1,.132-1.661,5.839,5.839,0,0,1,.152-.608,11.613,11.613,0,0,0,.273,2.2,7.27,7.27,0,0,0,.719,2.025,2.4,2.4,0,0,0,.709.81,1.443,1.443,0,0,0,.952.273,2.091,2.091,0,0,0,.547-.081l.324-.091s.142-.081.213-.111a2.952,2.952,0,0,0,.891-.658,7.312,7.312,0,0,0,.7-.891c.213-.294.375-.618.547-.891.3-.587.557-1.084.719-1.438l.273-.557Z" transform="translate(-351.408 -85.163)"/>
            <path id="Caminho_33" data-name="Caminho 33" d="M395.083,109.11a8.048,8.048,0,0,0,.739-1.134,3.584,3.584,0,0,0,.405-1.215,1.173,1.173,0,0,0-.051-.567.535.535,0,0,0-.111-.243.63.63,0,0,0-.152-.213c-.071-.061-.111-.142-.2-.182l-.243-.152a1.121,1.121,0,0,0-.273-.122l-.284-.122-.2-.091-.051-.2a20.361,20.361,0,0,1-.537-3.22,11.329,11.329,0,0,1-.03-1.661,5.214,5.214,0,0,1,.324-1.711,2.043,2.043,0,0,1,.557-.82,1.4,1.4,0,0,1,1.013-.334,3.713,3.713,0,0,1,.861.2,3.49,3.49,0,0,1,.8.405,2.982,2.982,0,0,1,.638.6,3.244,3.244,0,0,1,.425.749,3.2,3.2,0,0,1,.213,1.62,3.637,3.637,0,0,0-.516-1.468,2.776,2.776,0,0,0-1.074-.982,4.433,4.433,0,0,0-.668-.243,2.771,2.771,0,0,0-.709-.1c-.375.02-.6.263-.749.709a8.775,8.775,0,0,0-.172,2.987c.081,1.033.223,2.086.4,3.119l-.253-.294.344.172a1.886,1.886,0,0,1,.334.192l.314.243a2.646,2.646,0,0,1,.273.3,1.375,1.375,0,0,1,.213.354,1.057,1.057,0,0,1,.121.395,1.868,1.868,0,0,1-.041.79,3.54,3.54,0,0,1-.668,1.286,6.006,6.006,0,0,1-.982.982Z" transform="translate(-351.101 -85.201)" fill="#76413b"/>
            <path id="Caminho_34" data-name="Caminho 34" d="M361.973,113.385a4.088,4.088,0,0,1-1.3.061,5.44,5.44,0,0,1-1.154-.243,4.794,4.794,0,0,1-1.043-.456,3.528,3.528,0,0,1-.486-.3c-.152-.122-.314-.223-.466-.354l-.567-.516.152-.446c.992-2.9,2-5.782,3.028-8.659,1.053-2.876,2.1-5.752,3.241-8.6-.7,2.987-1.479,5.945-2.268,8.9s-1.62,5.894-2.471,8.831l-.415-.962a5,5,0,0,1,.557.152,4.185,4.185,0,0,1,.537.192,5.3,5.3,0,0,1,.992.557,5.713,5.713,0,0,1,.891.76,3.937,3.937,0,0,1,.739,1.073Z" transform="translate(-351.573 -85.242)" fill="#76413b"/>
            <path id="Caminho_35" data-name="Caminho 35" d="M367.8,89a3.441,3.441,0,0,1,.435-.648,5.575,5.575,0,0,1,.6-.658,7.847,7.847,0,0,1,.891-.739,7.448,7.448,0,0,1,1.195-.709,9.231,9.231,0,0,1,1.468-.567,8.965,8.965,0,0,1,1.681-.284c.294-.01.587-.041.891-.041l.891.081a8.307,8.307,0,0,1,1.732.415,10.378,10.378,0,0,1,1.549.729c.466.294.871.628,1.266.932a7.208,7.208,0,0,1,.942,1.013,4.7,4.7,0,0,1,.658.942,8.507,8.507,0,0,1,.405.79,5.824,5.824,0,0,1,.294.709,6.921,6.921,0,0,1-.719-.294c-.213-.1-.486-.213-.759-.354a9.775,9.775,0,0,0-.962-.415c-.354-.132-.689-.344-1.084-.466-.375-.142-.77-.284-1.185-.435-.415-.091-.83-.243-1.256-.344a11.389,11.389,0,0,0-1.286-.223l-.648-.091-.658-.03c-.435-.051-.871,0-1.306-.01-.425.041-.851.03-1.256.091-.405.04-.8.081-1.175.142-.739.1-1.387.213-1.853.3s-.749.142-.749.142Z" transform="translate(-351.435 -85.35)" fill="#051f38"/>
          </g>
        </g>
      </g>
      <g id="Grupo_33" data-name="Grupo 33" transform="translate(8.531 212.948)">
        <g id="Grupo_28" data-name="Grupo 28" transform="translate(0 0)">
          <g id="Grupo_26" data-name="Grupo 26" transform="translate(12.162 151.884)">
            <path id="Caminho_36" data-name="Caminho 36" d="M354.21,431.252A6.676,6.676,0,0,1,347.628,438h0a6.676,6.676,0,0,1-6.745-6.583l-.263-21.469A6.676,6.676,0,0,1,347.2,403.2h0a6.676,6.676,0,0,1,6.745,6.583Z" transform="translate(-247.36 -403.2)" fill="#091e1d"/>
            <path id="Caminho_37" data-name="Caminho 37" d="M262.12,432.372a6.676,6.676,0,0,1-6.583,6.745h0a6.676,6.676,0,0,1-6.745-6.583l-.263-21.469a6.676,6.676,0,0,1,6.583-6.745h0a6.676,6.676,0,0,1,6.745,6.583Z" transform="translate(-248.53 -403.185)" fill="#091e1d"/>
          </g>
          <g id="Grupo_27" data-name="Grupo 27">
            <path id="Caminho_38" data-name="Caminho 38" d="M347.813,417.828a15.024,15.024,0,0,1-14.846,15.211l-62.372.76a15.024,15.024,0,0,1-15.211-14.846l-6.724-141.97a15.024,15.024,0,0,1,14.846-15.211l72.367-.881a15.024,15.024,0,0,1,15.211,14.846l-3.271,142.092Z" transform="translate(-236.365 -253.122)" fill="#00c220"/>
            <path id="Caminho_39" data-name="Caminho 39" d="M350.76,289.863l.324-14.117A15.024,15.024,0,0,0,335.874,260.9l-72.367.881a15.024,15.024,0,0,0-14.846,15.211l.668,14.107,101.432-1.235Z" transform="translate(-236.365 -253.122)" fill="#161826" opacity="0.1"/>
            <path id="Caminho_40" data-name="Caminho 40" d="M363.269,272.319a4.162,4.162,0,0,1-4.112,4.213L240.915,277.97a4.162,4.162,0,0,1-4.213-4.112l-.182-14.988a4.162,4.162,0,0,1,4.112-4.213l118.243-1.438a4.162,4.162,0,0,1,4.213,4.112l.182,14.988Z" transform="translate(-236.52 -253.22)" fill="#00c220"/>
          </g>
        </g>
        <g id="Grupo_32" data-name="Grupo 32" transform="translate(43.5 47.648)">
          <g id="Grupo_29" data-name="Grupo 29" transform="translate(6.183)">
            <path id="Caminho_41" data-name="Caminho 41" d="M299.74,313.293l13.712-8.233-3.322,8.608Z" transform="translate(-285.4 -300.209)" fill="#fff"/>
            <path id="Caminho_42" data-name="Caminho 42" d="M294.6,300.31s1.114-.01,2.856,2.592,5.56,9.712,5.56,9.712l7.018-3.109,1.58-2.744s-3-6.117-5.428-6.491l-11.6.04Z" transform="translate(-285.466 -300.27)" fill="#fff"/>
            <path id="Caminho_43" data-name="Caminho 43" d="M290.907,302.159s2.086-2.349,3.818-1.154,4.719,6.3,4.719,6.3l-4.932,8.729L285.58,311.1l5.337-8.942Z" transform="translate(-285.58 -300.265)" fill="#fff"/>
          </g>
          <g id="Grupo_30" data-name="Grupo 30" transform="translate(21.495 12.395)">
            <path id="Caminho_44" data-name="Caminho 44" d="M305.966,323.92l.739,15.99-6.005-7.018Z" transform="translate(-300.7 -312.365)" fill="#fff"/>
            <path id="Caminho_45" data-name="Caminho 45" d="M319.863,325.52s-.516.982-3.636,1.286-11.19.284-11.19.284l-.6,7.656,1.661,2.694s6.805.263,8.284-1.691l5.469-10.228Z" transform="translate(-300.653 -312.345)" fill="#fff"/>
            <path id="Caminho_46" data-name="Caminho 46" d="M320.014,321.442s1.073,2.957-.79,3.909-7.777,1.165-7.777,1.165l-5.347-8.486,8.588-5.519,5.337,8.942Z" transform="translate(-300.631 -312.51)" fill="#fff"/>
          </g>
          <g id="Grupo_31" data-name="Grupo 31" transform="translate(0 14.654)">
            <path id="Caminho_47" data-name="Caminho 47" d="M294.128,323.814l-14.178-7.423,9.084-1.651Z" transform="translate(-279.468 -314.74)" fill="#fff"/>
            <path id="Caminho_48" data-name="Caminho 48" d="M285.7,335.015s-.587-.942.719-3.787,5.4-9.813,5.4-9.813l-6.309-4.375-3.16.081s-3.666,5.742-2.714,8.01l6.066,9.884Z" transform="translate(-279.474 -314.711)" fill="#fff"/>
            <path id="Caminho_49" data-name="Caminho 49" d="M289.187,337.179s-3.089-.567-2.977-2.663,2.927-7.3,2.927-7.3l10.026-.334.435,10.2-10.411.091Z" transform="translate(-279.389 -314.586)" fill="#fff"/>
          </g>
        </g>
      </g>
    </g>
    <g id="Grupo_71" data-name="Grupo 71">
      <g id="Grupo_62" data-name="Grupo 62">
        <g id="Grupo_39" data-name="Grupo 39" transform="translate(0 178.953)">
          <g id="Grupo_35" data-name="Grupo 35" transform="translate(0 211.999)">
            <path id="Caminho_50" data-name="Caminho 50" d="M85.595,391.34s-2.218,35.768-4.182,36.457c-7.4,2.572-63.182,16.75-10.411-7.048l-1.438-26.036,16.021-3.372Z" transform="translate(-48.54 -391.33)" fill="#051f38"/>
            <path id="Caminho_51" data-name="Caminho 51" d="M82.992,419.048c1.3-10.785,2.339-27.718,2.339-27.718L69.31,394.7l1.276,23.181c3.97,1.1,8.578,1.134,12.406,1.155Z" transform="translate(-48.277 -391.33)" fill="#041523"/>
            <path id="Caminho_52" data-name="Caminho 52" d="M48.611,432.727c-1.61,3.99,27.586-3.575,32.8-5.388.152-.051.3-.334.456-.77-6.583,1.823-26.492,6.37-33.257,6.157Z" transform="translate(-48.54 -390.883)" fill="#fff"/>
          </g>
          <g id="Grupo_36" data-name="Grupo 36" transform="translate(71.142 210.085)">
            <path id="Caminho_53" data-name="Caminho 53" d="M118.79,389.45s2.957,35.718,4.942,36.366c7.453,2.43,63.516,15.5,10.259-7.251l.891-26.057L118.79,389.45Z" transform="translate(-118.79 -389.44)" fill="#051f38"/>
            <path id="Caminho_54" data-name="Caminho 54" d="M121.717,417.107C120.2,406.342,118.8,389.44,118.8,389.44l16.092,3.058-.79,23.2c-3.95,1.185-8.547,1.3-12.375,1.4Z" transform="translate(-118.79 -389.44)" fill="#041523"/>
            <path id="Caminho_55" data-name="Caminho 55" d="M156.589,430.109c1.691,3.96-27.657-3.028-32.913-4.739-.152-.051-.314-.334-.476-.76,6.623,1.691,26.614,5.843,33.379,5.5Z" transform="translate(-118.734 -388.993)" fill="#fff"/>
          </g>
          <g id="Grupo_38" data-name="Grupo 38" transform="translate(13.268)">
            <path id="Caminho_56" data-name="Caminho 56" d="M129.319,199.084s14.542,117.777,11.7,213.072c0,0-17.388,4.9-21.976,1.337-3.929-22.593-3.4-66.484-9.307-99.194-5.56-30.8-7.757-55.952-7.757-55.952l-1.863-2.025S88.152,405.2,85.53,416.5c-15.079,3.565-19.849-.6-19.849-.6s-6.886-186.215-2.674-216.262c5.509-39.374,66.3-.547,66.3-.547Z" transform="translate(-61.643 -181.989)" fill="#00c220"/>
            <g id="Grupo_37" data-name="Grupo 37" transform="translate(0.301)">
              <path id="Caminho_57" data-name="Caminho 57" d="M132.009,223.419c-1.56-15.211-2.694-24.335-2.694-24.335s-60.792-38.827-66.3.547c-.506,3.646-.861,9.61-1.073,17.256,4.415,2.522,61.3,10.643,70.069,6.532Z" transform="translate(-61.94 -181.989)" fill="#161826" opacity="0.1"/>
              <path id="Caminho_58" data-name="Caminho 58" d="M100.3,254.3c.668,7.99,4.375,33.834,8.952,59.233,5.9,32.71,5.367,76.59,9.307,99.194,4.588,3.565,21.976-1.337,21.976-1.337,1.752-58.615-3.079-125.726-7.048-168.715-9.681,6.005-21.915,8.972-33.176,11.626Z" transform="translate(-61.453 -181.218)" fill="#161826" opacity="0.1"/>
            </g>
          </g>
        </g>
        <g id="Grupo_46" data-name="Grupo 46" transform="translate(12.172)">
          <g id="Grupo_40" data-name="Grupo 40" transform="translate(0 57.703)">
            <path id="Caminho_59" data-name="Caminho 59" d="M106,97.613c.061-12.345,1-28.629,1-28.629L82.667,62.26s.81,22.067,1.519,35.515c-11.069,3.777-23.626,10.846-23.626,10.846l45.9,11.636,16.325-15.839A124.979,124.979,0,0,0,106,97.613Z" transform="translate(-60.56 -62.26)" fill="#ffb39f"/>
            <path id="Caminho_60" data-name="Caminho 60" d="M106,97.613c.061-12.345,1-28.629,1-28.629L82.667,62.26s.81,22.067,1.519,35.515c-11.069,3.777-23.626,10.846-23.626,10.846l45.9,11.636,21.692-18.684s-13.5-5.063-22.138-3.96Z" transform="translate(-60.56 -62.26)" fill="#e09b8d"/>
          </g>
          <g id="Grupo_43" data-name="Grupo 43" transform="translate(4.664)">
            <g id="Grupo_41" data-name="Grupo 41" transform="translate(8.835 16.529)">
              <path id="Caminho_61" data-name="Caminho 61" d="M80.273,39.373s6.4-20.7,23.211-17.418,19.292,25.2,21.419,40.032-2.643,28.244-15.818,29.854C97.641,93.238,77.65,91,80.273,39.363Z" transform="translate(-73.812 -21.602)" fill="#ffb39f"/>
              <path id="Caminho_62" data-name="Caminho 62" d="M81.171,56.2s-1-2.755-5.155.284c-5.256,3.858.122,18,6.481,16.537S81.171,56.2,81.171,56.2Z" transform="translate(-73.89 -21.177)" fill="#ffb39f"/>
            </g>
            <g id="Grupo_42" data-name="Grupo 42">
              <path id="Caminho_63" data-name="Caminho 63" d="M75.459,27.4c.354-.061,8.294-.739,3.018-.223,4.831,5.266,4.355,6.542,11.038,7.808,3.524,10.9-3.393,17.53-3.393,17.53l1.884,13.125-5.023.537s.061-9.114-3.757-9.894-4.982,3.858-4.982,3.858C66.2,50.029,58.122,30.15,75.449,27.405Z" transform="translate(-65.166 -5.004)" fill="#051f38"/>
              <path id="Caminho_64" data-name="Caminho 64" d="M121.224,20.339c3.22-7.99-2.258-15.059-2.258-15.059a11.378,11.378,0,0,1-.415,7.909,19.029,19.029,0,0,0-3.777-7.1s.577,8.051-10.481,7.048-30.361.537-31.181,17.611,15.656,4.689,15.656,4.689,32.933,9.236,37.652-17.287l-5.2,2.2Z" transform="translate(-65.065 -5.28)" fill="#051f38"/>
            </g>
          </g>
          <g id="Grupo_45" data-name="Grupo 45" transform="translate(15.242 39.6)">
            <path id="Caminho_65" data-name="Caminho 65" d="M105.346,49.376s-.273-.051-.749-.132-1.1-.192-1.843-.294c-.365-.061-.76-.111-1.165-.142-.405-.071-.83-.051-1.246-.111-.425.02-.861-.051-1.3,0-.213,0-.435.02-.648.02l-.648.081a9.045,9.045,0,0,0-1.276.2c-.425.071-.82.233-1.235.314-.405.111-.79.284-1.175.405-.395.1-.729.314-1.073.435a9.923,9.923,0,0,0-.962.395c-.273.142-.537.253-.76.344-.435.192-.719.284-.719.284a5.82,5.82,0,0,1,.294-.709,7.34,7.34,0,0,1,.405-.78,4.725,4.725,0,0,1,.668-.932,7.218,7.218,0,0,1,.952-.992,11.641,11.641,0,0,1,1.266-.911,9.338,9.338,0,0,1,1.549-.689,7.65,7.65,0,0,1,1.732-.375l.881-.071c.294,0,.587.03.871.051a3.383,3.383,0,0,1,.851.122c.273.061.547.111.81.182a9.256,9.256,0,0,1,1.438.577,7.68,7.68,0,0,1,1.175.709,8.663,8.663,0,0,1,.881.739,6.158,6.158,0,0,1,.587.658,4.229,4.229,0,0,1,.435.648Z" transform="translate(-75.421 -44.366)" fill="#051f38"/>
            <path id="Caminho_66" data-name="Caminho 66" d="M122.291,48.9l-.587-.223c-.365-.142-.861-.324-1.418-.516-.284-.091-.567-.2-.871-.284-.294-.111-.618-.162-.911-.253-.314-.051-.618-.132-.922-.152-.152-.02-.3-.02-.456-.051h-.446a6.575,6.575,0,0,0-.891.051c-.294.051-.6.132-.911.162a7.053,7.053,0,0,1-.9.263c-.294.1-.577.223-.861.314a6.49,6.49,0,0,0-.79.284c-.233.1-.456.182-.638.243a6.453,6.453,0,0,1-.618.192,3.713,3.713,0,0,1,.182-.608,7.313,7.313,0,0,1,.273-.679,3.126,3.126,0,0,1,.486-.81,7.729,7.729,0,0,1,.729-.871c.314-.263.668-.537,1.043-.8a8.022,8.022,0,0,1,1.347-.567,5.586,5.586,0,0,1,1.539-.2c.263.01.527.02.78.041.253.041.506.111.749.172a3.79,3.79,0,0,1,.7.243,4.15,4.15,0,0,1,.638.314,6.106,6.106,0,0,1,1.813,1.62,5.44,5.44,0,0,1,.78,1.489,2.9,2.9,0,0,1,.152.628Z" transform="translate(-75.161 -44.383)" fill="#051f38"/>
            <path id="Caminho_67" data-name="Caminho 67" d="M109.81,49.96c.648,1.357,1.215,2.714,1.782,4.071.294.679.537,1.367.82,2.036l.81,2.036.81,2.015c.273.679.537,1.347.841,2l.425.992a10.7,10.7,0,0,0,.435.982c.314.638.648,1.256.942,1.914l.354.79-.618.3c-.932.456-1.873.881-2.825,1.286s-1.914.79-2.927,1.1c.78-.7,1.61-1.327,2.441-1.955.841-.608,1.681-1.205,2.542-1.772l-.263,1.084c-.435-.628-.82-1.286-1.235-1.924a22.231,22.231,0,0,1-1.033-2.015l-.466-1.023-.395-1.053c-.243-.709-.547-1.387-.749-2.106l-.618-2.147c-.172-.729-.344-1.448-.5-2.177a29.584,29.584,0,0,1-.587-4.425Z" transform="translate(-75.177 -44.312)" fill="#dd9078"/>
            <path id="Caminho_68" data-name="Caminho 68" d="M80.917,70.126a5.653,5.653,0,0,1-1.144-.881,3.57,3.57,0,0,1-.861-1.225,2.039,2.039,0,0,1-.162-.79,1.216,1.216,0,0,1,.041-.425,1.358,1.358,0,0,1,.132-.405,2.281,2.281,0,0,1,.476-.679,1.442,1.442,0,0,1,.294-.263l.314-.243-.192.334c0-1.094-.03-2.2-.122-3.281a10.335,10.335,0,0,0-.628-3.089,1.666,1.666,0,0,0-.365-.537.6.6,0,0,0-.466-.162,1.1,1.1,0,0,0-.314.081c-.122.051-.273.091-.385.152a3.67,3.67,0,0,0-.628.375,2.7,2.7,0,0,0-.516.557,3.221,3.221,0,0,0-.375.689,4.271,4.271,0,0,0-.263,1.61,3.567,3.567,0,0,1-.071-1.7,2.967,2.967,0,0,1,.82-1.59l.344-.3.405-.263c.132-.081.253-.122.385-.192a2.46,2.46,0,0,1,.486-.172,1.367,1.367,0,0,1,1.094.273,2.513,2.513,0,0,1,.628.79,6.087,6.087,0,0,1,.557,1.7,13.9,13.9,0,0,1,.233,1.711,23.846,23.846,0,0,1,0,3.4v.192l-.192.142c-.162.122-.365.223-.506.354a1.607,1.607,0,0,0-.385.446.806.806,0,0,0-.111.253.668.668,0,0,0-.061.273,1.515,1.515,0,0,0,.051.6,3.749,3.749,0,0,0,.587,1.195,9.079,9.079,0,0,0,.922,1.073Z" transform="translate(-75.611 -44.214)" fill="#dd9078"/>
            <path id="Caminho_69" data-name="Caminho 69" d="M96.45,58.818s.071.2.2.567l.223.648c.122.233.243.486.375.76s.365.527.537.82l.365.365a1.828,1.828,0,0,0,.405.334,2.827,2.827,0,0,0,.962.425c.172.01.354.061.527.061.172-.03.354-.03.527-.071l.506-.172.456-.284a3.37,3.37,0,0,0,.719-.8,5.477,5.477,0,0,0,.476-.942c.061-.334.172-.658.213-.962.02-.314.051-.6.081-.861,0-.263-.02-.486-.02-.679V57.42l.2.567a4.643,4.643,0,0,1,.2.679c.041.273.081.577.122.922a8.928,8.928,0,0,1-.061,1.124,4.627,4.627,0,0,1-.435,1.215,3.823,3.823,0,0,1-.881,1.114l-.628.415c-.233.091-.476.182-.719.263-.253.041-.506.051-.76.081a6.064,6.064,0,0,1-.749-.1,3.373,3.373,0,0,1-1.266-.668,4.072,4.072,0,0,1-.861-.972,6.868,6.868,0,0,1-.456-1.033c-.091-.334-.162-.648-.213-.911a6.03,6.03,0,0,1-.041-.689v-.608Z" transform="translate(-75.346 -44.217)"/>
            <path id="Caminho_70" data-name="Caminho 70" d="M114.61,55.817s.071.2.2.567c.061.182.132.405.223.648.122.233.243.486.375.77s.365.527.537.82l.365.365a1.827,1.827,0,0,0,.405.334,2.827,2.827,0,0,0,.962.425c.172.01.354.061.527.061.172-.03.354-.03.527-.071l.506-.172.456-.284a3.37,3.37,0,0,0,.719-.8,5.475,5.475,0,0,0,.476-.942c.061-.334.172-.658.213-.962.02-.314.051-.6.081-.861,0-.263-.02-.486-.02-.679V54.43l.2.567a4.641,4.641,0,0,1,.2.679c.041.273.081.577.122.922a8.931,8.931,0,0,1-.061,1.124,4.627,4.627,0,0,1-.435,1.215,3.823,3.823,0,0,1-.881,1.114l-.628.415c-.233.091-.476.182-.719.263-.253.041-.506.051-.76.081a6.066,6.066,0,0,1-.749-.1,3.373,3.373,0,0,1-1.266-.668,4.072,4.072,0,0,1-.861-.972,6.87,6.87,0,0,1-.456-1.033c-.091-.334-.162-.648-.213-.911a6.031,6.031,0,0,1-.041-.689v-.608Z" transform="translate(-75.116 -44.255)"/>
            <g id="Grupo_44" data-name="Grupo 44" transform="translate(22.714 24.374)">
              <path id="Caminho_71" data-name="Caminho 71" d="M99.606,75.863s-1.853-6.258,1.853-7.3,4.9,5.681,4.9,5.681-4.507-.81-6.755,1.62Z" transform="translate(-98.026 -68.451)" fill="#d15e5e"/>
              <path id="Caminho_72" data-name="Caminho 72" d="M115.7,78.227s.132,0-.01-.111c-.1-.091-.284-.2-.506-.354a19.779,19.779,0,0,0-1.944-1.023,27.593,27.593,0,0,0-2.815-1.124c-.516-.182-1.063-.3-1.61-.456a11.692,11.692,0,0,0-1.681-.3,14.175,14.175,0,0,0-3.332-.061,16.46,16.46,0,0,0-2.917.6,20.959,20.959,0,0,0-2.056.76c-.506.213-.79.334-.79.334a7.874,7.874,0,0,1,.577-.648,9.647,9.647,0,0,1,1.813-1.448,10.011,10.011,0,0,1,3.1-1.266,10.944,10.944,0,0,1,3.868-.172,16.9,16.9,0,0,1,1.914.415,11.65,11.65,0,0,1,1.752.679,12.916,12.916,0,0,1,2.785,1.762,9.517,9.517,0,0,1,1.61,1.671,2.59,2.59,0,0,1,.334.567c.02.061.061.162-.02.182a.089.089,0,0,1-.061-.02Z" transform="translate(-98.04 -68.396)" fill="#dd9078"/>
            </g>
          </g>
        </g>
        <g id="Grupo_61" data-name="Grupo 61" transform="translate(6.313 92.579)">
          <g id="Grupo_48" data-name="Grupo 48">
            <path id="Caminho_73" data-name="Caminho 73" d="M113.69,96.832S139.615,94.047,143,113.967s3.038,25.317,3.038,25.317l-25.317-3.717Z" transform="translate(-54.026 -96.699)" fill="#4a1f61"/>
            <g id="Grupo_47" data-name="Grupo 47" transform="translate(0 0.133)">
              <path id="Caminho_74" data-name="Caminho 74" d="M136.353,112.871c-1.519-12.649-14.411-15.444-21.915-16.041-3.372,4.638-8,8.031-14.431,8.233-7.261.223-13.945-2.36-17.5-7.859-11.373,1.327-22.583,4.608-25.145,12.294-5.4,16.2-.679,105.321-.679,105.321s45.4,7.767,82.616.678c0,0-.932-85.745-2.957-102.617Z" transform="translate(-54.774 -96.83)" fill="#603578"/>
              <path id="Caminho_75" data-name="Caminho 75" d="M54.79,152.379c.162,29.4,1.9,62.119,1.9,62.119s45.4,7.767,82.616.679c0,0-.709-65.147-2.228-93.047q-41.09,15.282-82.292,30.259Z" transform="translate(-54.774 -96.509)" fill="#352c38" opacity="0.2"/>
            </g>
          </g>
          <g id="Grupo_60" data-name="Grupo 60" transform="translate(1.242 33.556)">
            <g id="Grupo_57" data-name="Grupo 57" transform="translate(24.573)">
              <g id="Grupo_50" data-name="Grupo 50" transform="translate(1.726 27.026)">
                <path id="Caminho_76" data-name="Caminho 76" d="M82.431,175.417s-.962-2.886,3.666-4.82,52.62-14.451,55.7-14.066,40.164,4.912,40.8,6.886-44.468,16.628-44.468,16.628l-55.7-4.628Z" transform="translate(-81.964 -156.521)" fill="#e1edff"/>
                <g id="Grupo_49" data-name="Grupo 49" transform="translate(0 6.169)">
                  <path id="Caminho_77" data-name="Caminho 77" d="M140.636,183.826s-52.559-.223-56.61-4.952-4.122-8.162,18.836-4.112,36.234,3.474,36.234,3.474,42.148-19.616,43.505-14.887,5.833,3.514-41.956,20.477Z" transform="translate(-81.969 -162.613)" fill="#c0d5ff"/>
                  <path id="Caminho_78" data-name="Caminho 78" d="M181.881,163.349c-1.347-4.729-43.505,14.887-43.505,14.887s-.152,0-.425.01c.871,1.772,1.661,3.585,2.39,5.428,47.333-16.8,42.878-15.616,41.531-20.325Z" transform="translate(-81.258 -162.613)" fill="#b1c5e8"/>
                </g>
              </g>
              <g id="Grupo_52" data-name="Grupo 52" transform="translate(0.187 16.241)">
                <path id="Caminho_79" data-name="Caminho 79" d="M80.9,164.767s-.962-2.886,3.666-4.82,52.62-14.451,55.7-14.066,40.164,4.912,40.8,6.886S136.6,169.395,136.6,169.395l-55.7-4.628Z" transform="translate(-80.444 -145.871)" fill="#e1edff"/>
                <g id="Grupo_51" data-name="Grupo 51" transform="translate(0 6.159)">
                  <path id="Caminho_80" data-name="Caminho 80" d="M139.116,173.166s-52.559-.223-56.61-4.952-4.122-8.162,18.836-4.112,36.234,3.474,36.234,3.474,42.148-19.616,43.505-14.887,5.833,3.514-41.956,20.477Z" transform="translate(-80.449 -151.953)" fill="#c0d5ff"/>
                  <path id="Caminho_81" data-name="Caminho 81" d="M180.361,152.689c-1.347-4.729-43.505,14.887-43.505,14.887s-.152,0-.425.01c.871,1.772,1.661,3.585,2.39,5.428,47.333-16.8,42.878-15.616,41.531-20.325Z" transform="translate(-79.738 -151.953)" fill="#b1c5e8"/>
                </g>
              </g>
              <g id="Grupo_54" data-name="Grupo 54" transform="translate(0 9.68)">
                <path id="Caminho_82" data-name="Caminho 82" d="M80.7,156.029s-.932-2.542,3.544-4.243,50.918-12.73,53.9-12.385,38.867,4.324,39.485,6.066S134.6,160.1,134.6,160.1Z" transform="translate(-80.26 -139.392)" fill="#e1edff"/>
                <g id="Grupo_53" data-name="Grupo 53" transform="translate(0 5.426)">
                  <path id="Caminho_83" data-name="Caminho 83" d="M137.032,163.424s-50.858-.2-54.777-4.355-3.99-7.18,18.229-3.615,35.06,3.058,35.06,3.058,40.791-17.266,42.1-13.1,5.651,3.1-40.6,18.026Z" transform="translate(-80.264 -144.751)" fill="#c0d5ff"/>
                  <path id="Caminho_84" data-name="Caminho 84" d="M176.943,145.4c-1.306-4.162-42.1,13.1-42.1,13.1s-.142,0-.415.01c.841,1.56,1.61,3.16,2.319,4.78,45.8-14.785,41.49-13.742,40.184-17.894Z" transform="translate(-79.577 -144.751)" fill="#b1c5e8"/>
                </g>
              </g>
              <g id="Grupo_56" data-name="Grupo 56" transform="translate(1.411)">
                <path id="Caminho_85" data-name="Caminho 85" d="M82.091,144.3s-.841-2.582,3.7-4.1,51.354-10.805,54.321-10.35,38.675,5.783,39.232,7.545-43.546,13-43.546,13l-53.7-6.1Z" transform="translate(-81.653 -129.834)" fill="#fff"/>
                <g id="Grupo_55" data-name="Grupo 55" transform="translate(0 6.836)">
                  <path id="Caminho_86" data-name="Caminho 86" d="M138.1,153.8s-50.817-2.106-54.574-6.41-3.717-7.322,18.35-2.927,34.918,4.365,34.918,4.365S178.2,133.1,179.345,137.309s5.529,3.312-41.247,16.487Z" transform="translate(-81.657 -136.585)" fill="#c0d5ff"/>
                  <path id="Caminho_87" data-name="Caminho 87" d="M178.659,137.3c-1.144-4.2-42.554,11.514-42.554,11.514h-.415c.79,1.59,1.489,3.22,2.137,4.861C184.158,140.621,179.8,141.492,178.659,137.3Z" transform="translate(-80.971 -136.585)" fill="#b1c5e8"/>
                </g>
              </g>
            </g>
            <g id="Grupo_59" data-name="Grupo 59" transform="translate(0 10.295)">
              <path id="Caminho_88" data-name="Caminho 88" d="M56,146.076,80.983,140s5.4,36.457,6.755,38.483,43.212,4.051,43.212,4.051l12.152.679s-51.313,21.6-66.16,12.831S56.01,146.086,56.01,146.086Z" transform="translate(-56 -140)" fill="#ffb39f"/>
              <path id="Caminho_89" data-name="Caminho 89" d="M58.451,150.421c7.666-2.37,15.221-5.185,23.059-6.9-.334-2.177-.527-3.524-.527-3.524L56,146.076s.273,1.843.841,4.82c.537-.162,1.073-.314,1.61-.476Z" transform="translate(-56 -140)" fill="#e09b8d"/>
              <g id="Grupo_58" data-name="Grupo 58" transform="translate(58.483 17.328)">
                <path id="Caminho_90" data-name="Caminho 90" d="M137.8,186.237s18.988-5.063,18.988-8.861-6.836-17.722-2.025.76c0,0-10.127-25.064-2.025,1.266,0,0-7.848-20.507-2.532.506,0,0-8.1-14.178-2.279,1.013l-7.271,2.694-17.54-.162-9.367,9.114Z" transform="translate(-113.75 -156.981)" fill="#ffb39f"/>
                <path id="Caminho_91" data-name="Caminho 91" d="M181.664,167.885s-10.127-25.064-2.025,1.266c0,0-7.848-20.507-2.532.506,0,0-8.1-14.178-2.9,1.084l-5.6,2.6a18.615,18.615,0,0,0,6.755-.618c6.481-1.306,8.324-3.544,8.324-5.6,0-3.8-6.836-17.722-2.025.76Z" transform="translate(-113.053 -157.111)" fill="#ffb39f"/>
              </g>
            </g>
          </g>
        </g>
      </g>
      <g id="Grupo_70" data-name="Grupo 70" transform="translate(41.51 251.088)">
        <g id="Grupo_65" data-name="Grupo 65">
          <g id="Grupo_63" data-name="Grupo 63" transform="translate(12.152 151.884)">
            <path id="Caminho_92" data-name="Caminho 92" d="M207.22,431.252A6.676,6.676,0,0,1,200.638,438h0a6.676,6.676,0,0,1-6.745-6.583l-.263-21.469a6.676,6.676,0,0,1,6.583-6.745h0a6.676,6.676,0,0,1,6.745,6.583Z" transform="translate(-100.36 -403.2)" fill="#091e1d"/>
            <path id="Caminho_93" data-name="Caminho 93" d="M115.12,432.372a6.676,6.676,0,0,1-6.583,6.745h0a6.676,6.676,0,0,1-6.745-6.583l-.263-21.469a6.676,6.676,0,0,1,6.583-6.745h0a6.676,6.676,0,0,1,6.745,6.583l.263,21.469Z" transform="translate(-101.53 -403.185)" fill="#091e1d"/>
          </g>
          <g id="Grupo_64" data-name="Grupo 64">
            <path id="Caminho_94" data-name="Caminho 94" d="M200.823,417.828a15.024,15.024,0,0,1-14.846,15.211l-62.372.76a15.024,15.024,0,0,1-15.211-14.846l-6.724-141.97a15.024,15.024,0,0,1,14.846-15.211l72.367-.881a15.024,15.024,0,0,1,15.211,14.846Z" transform="translate(-89.376 -253.122)" fill="#0a3b77"/>
            <path id="Caminho_95" data-name="Caminho 95" d="M203.77,289.863l.324-14.117A15.024,15.024,0,0,0,188.884,260.9l-72.367.881a15.024,15.024,0,0,0-14.846,15.211l.668,14.107Z" transform="translate(-89.376 -253.122)" fill="#08325b"/>
            <path id="Caminho_96" data-name="Caminho 96" d="M216.279,272.319a4.162,4.162,0,0,1-4.112,4.213L93.925,277.97a4.162,4.162,0,0,1-4.213-4.112l-.182-14.988a4.162,4.162,0,0,1,4.112-4.213l118.243-1.438a4.162,4.162,0,0,1,4.213,4.112l.182,14.988Z" transform="translate(-89.53 -253.22)" fill="#0a3b77"/>
          </g>
        </g>
        <g id="Grupo_69" data-name="Grupo 69" transform="translate(43.5 47.648)">
          <g id="Grupo_66" data-name="Grupo 66" transform="translate(6.173)">
            <path id="Caminho_97" data-name="Caminho 97" d="M152.74,313.293l13.722-8.233-3.322,8.608Z" transform="translate(-138.4 -300.209)" fill="#fff"/>
            <path id="Caminho_98" data-name="Caminho 98" d="M147.61,300.31s1.114-.01,2.856,2.592,5.56,9.712,5.56,9.712l7.018-3.109,1.58-2.744s-3-6.117-5.428-6.491l-11.6.04Z" transform="translate(-138.465 -300.27)" fill="#fff"/>
            <path id="Caminho_99" data-name="Caminho 99" d="M143.907,302.159s2.086-2.349,3.818-1.154,4.719,6.3,4.719,6.3l-4.932,8.729L138.58,311.1l5.337-8.942Z" transform="translate(-138.58 -300.265)" fill="#fff"/>
          </g>
          <g id="Grupo_67" data-name="Grupo 67" transform="translate(21.485 12.395)">
            <path id="Caminho_100" data-name="Caminho 100" d="M158.966,323.92l.739,15.99-6.005-7.018Z" transform="translate(-153.7 -312.365)" fill="#fff"/>
            <path id="Caminho_101" data-name="Caminho 101" d="M172.873,325.52s-.516.982-3.636,1.286-11.19.284-11.19.284l-.6,7.656,1.661,2.694s6.805.263,8.284-1.691l5.469-10.228Z" transform="translate(-153.652 -312.345)" fill="#fff"/>
            <path id="Caminho_102" data-name="Caminho 102" d="M173.024,321.442s1.073,2.957-.79,3.909-7.778,1.165-7.778,1.165l-5.347-8.486,8.588-5.519,5.337,8.942Z" transform="translate(-153.631 -312.51)" fill="#fff"/>
          </g>
          <g id="Grupo_68" data-name="Grupo 68" transform="translate(0 14.654)">
            <path id="Caminho_103" data-name="Caminho 103" d="M147.128,323.814l-14.168-7.423,9.084-1.651Z" transform="translate(-132.478 -314.74)" fill="#fff"/>
            <path id="Caminho_104" data-name="Caminho 104" d="M138.708,335.015s-.587-.942.719-3.787,5.4-9.813,5.4-9.813l-6.309-4.375-3.16.081s-3.666,5.742-2.714,8.01l6.076,9.884Z" transform="translate(-132.484 -314.711)" fill="#fff"/>
            <path id="Caminho_105" data-name="Caminho 105" d="M142.187,337.179s-3.089-.567-2.977-2.663,2.927-7.3,2.927-7.3l10.026-.334.435,10.2-10.411.091Z" transform="translate(-132.399 -314.586)" fill="#fff"/>
          </g>
        </g>
      </g>
    </g>
  </g>
</svg>
